<mxfile host="app.diagrams.net" agent="Mozilla/5.0 (X11; Linux x86_64) AppleWebKit/537.36 (KHTML, like Gecko) Chrome/130.0.0.0 Safari/537.36" version="24.8.0">
  <diagram name="Page-1" id="7daSz1XWAhblABKLvRGZ">
    <mxGraphModel dx="2993" dy="603" grid="1" gridSize="10" guides="1" tooltips="1" connect="1" arrows="1" fold="1" page="1" pageScale="1" pageWidth="827" pageHeight="1169" math="0" shadow="0">
      <root>
        <mxCell id="0" />
        <mxCell id="1" parent="0" />
        <mxCell id="AQfkEVB8-soOwDxCn6y5-382" value="" style="rounded=1;whiteSpace=wrap;html=1;dashed=1;dashPattern=8 8;fillColor=none;strokeColor=#0022FF;" vertex="1" parent="1">
          <mxGeometry x="1644" y="3370" width="100" height="260" as="geometry" />
        </mxCell>
        <mxCell id="AQfkEVB8-soOwDxCn6y5-42" value="" style="rounded=1;whiteSpace=wrap;html=1;dashed=1;dashPattern=8 8;fillColor=none;strokeColor=#0022FF;" vertex="1" parent="1">
          <mxGeometry x="1140" y="3160" width="100" height="100" as="geometry" />
        </mxCell>
        <mxCell id="AQfkEVB8-soOwDxCn6y5-337" value="" style="rounded=1;whiteSpace=wrap;html=1;dashed=1;dashPattern=8 8;fillColor=none;strokeColor=#0022FF;" vertex="1" parent="1">
          <mxGeometry x="1300" y="2710" width="420" height="100" as="geometry" />
        </mxCell>
        <mxCell id="AQfkEVB8-soOwDxCn6y5-38" value="" style="rounded=1;whiteSpace=wrap;html=1;dashed=1;dashPattern=8 8;fillColor=none;strokeColor=#0022FF;" vertex="1" parent="1">
          <mxGeometry x="1140" y="2710" width="100" height="100" as="geometry" />
        </mxCell>
        <mxCell id="AQfkEVB8-soOwDxCn6y5-34" value="" style="rounded=1;whiteSpace=wrap;html=1;dashed=1;dashPattern=8 8;fillColor=none;strokeColor=#0022FF;" vertex="1" parent="1">
          <mxGeometry x="1150" y="2340" width="100" height="100" as="geometry" />
        </mxCell>
        <mxCell id="AQfkEVB8-soOwDxCn6y5-296" value="" style="rounded=1;whiteSpace=wrap;html=1;dashed=1;dashPattern=8 8;fillColor=none;strokeColor=#0022FF;" vertex="1" parent="1">
          <mxGeometry x="2110" y="2415" width="260" height="100" as="geometry" />
        </mxCell>
        <mxCell id="AQfkEVB8-soOwDxCn6y5-295" value="" style="rounded=1;whiteSpace=wrap;html=1;dashed=1;dashPattern=8 8;fillColor=none;strokeColor=#0022FF;" vertex="1" parent="1">
          <mxGeometry x="1310" y="2010" width="1060" height="100" as="geometry" />
        </mxCell>
        <mxCell id="AQfkEVB8-soOwDxCn6y5-29" value="" style="rounded=1;whiteSpace=wrap;html=1;dashed=1;dashPattern=8 8;fillColor=none;strokeColor=#0022FF;" vertex="1" parent="1">
          <mxGeometry x="1150" y="2010" width="100" height="100" as="geometry" />
        </mxCell>
        <mxCell id="AQfkEVB8-soOwDxCn6y5-225" value="" style="rounded=1;whiteSpace=wrap;html=1;dashed=1;dashPattern=8 8;fillColor=none;strokeColor=#0022FF;" vertex="1" parent="1">
          <mxGeometry x="1310" y="1700" width="900" height="100" as="geometry" />
        </mxCell>
        <mxCell id="AQfkEVB8-soOwDxCn6y5-25" value="" style="rounded=1;whiteSpace=wrap;html=1;dashed=1;dashPattern=8 8;fillColor=none;strokeColor=#0022FF;" vertex="1" parent="1">
          <mxGeometry x="1150" y="1700" width="100" height="100" as="geometry" />
        </mxCell>
        <mxCell id="AQfkEVB8-soOwDxCn6y5-192" value="" style="rounded=1;whiteSpace=wrap;html=1;dashed=1;dashPattern=8 8;fillColor=none;strokeColor=#0022FF;" vertex="1" parent="1">
          <mxGeometry x="1910" y="1159" width="420" height="100" as="geometry" />
        </mxCell>
        <mxCell id="AQfkEVB8-soOwDxCn6y5-185" value="" style="rounded=1;whiteSpace=wrap;html=1;dashed=1;dashPattern=8 8;fillColor=none;strokeColor=#0022FF;" vertex="1" parent="1">
          <mxGeometry x="1750" y="1375" width="620" height="95" as="geometry" />
        </mxCell>
        <mxCell id="AQfkEVB8-soOwDxCn6y5-153" value="" style="rounded=1;whiteSpace=wrap;html=1;dashed=1;dashPattern=8 8;fillColor=none;strokeColor=#0022FF;" vertex="1" parent="1">
          <mxGeometry x="1270" y="1159" width="580" height="100" as="geometry" />
        </mxCell>
        <mxCell id="AQfkEVB8-soOwDxCn6y5-21" value="" style="rounded=1;whiteSpace=wrap;html=1;dashed=1;dashPattern=8 8;fillColor=none;strokeColor=#0022FF;" vertex="1" parent="1">
          <mxGeometry x="1110" y="1159" width="100" height="100" as="geometry" />
        </mxCell>
        <mxCell id="AQfkEVB8-soOwDxCn6y5-134" value="" style="rounded=1;whiteSpace=wrap;html=1;dashed=1;dashPattern=8 8;fillColor=none;strokeColor=#0022FF;" vertex="1" parent="1">
          <mxGeometry x="1460" y="850" width="100" height="100" as="geometry" />
        </mxCell>
        <mxCell id="AQfkEVB8-soOwDxCn6y5-123" value="" style="rounded=1;whiteSpace=wrap;html=1;dashed=1;dashPattern=8 8;fillColor=none;strokeColor=#0022FF;" vertex="1" parent="1">
          <mxGeometry x="1290" y="990" width="430" height="100" as="geometry" />
        </mxCell>
        <mxCell id="AQfkEVB8-soOwDxCn6y5-18" value="" style="rounded=1;whiteSpace=wrap;html=1;dashed=1;dashPattern=8 8;fillColor=none;strokeColor=#0022FF;" vertex="1" parent="1">
          <mxGeometry x="1110" y="990" width="100" height="100" as="geometry" />
        </mxCell>
        <mxCell id="AQfkEVB8-soOwDxCn6y5-97" value="" style="rounded=1;whiteSpace=wrap;html=1;dashed=1;dashPattern=8 8;fillColor=none;strokeColor=#0022FF;" vertex="1" parent="1">
          <mxGeometry x="-470" y="1890" width="420" height="100" as="geometry" />
        </mxCell>
        <mxCell id="AQfkEVB8-soOwDxCn6y5-81" value="" style="rounded=1;whiteSpace=wrap;html=1;dashed=1;dashPattern=8 8;fillColor=none;strokeColor=#0022FF;" vertex="1" parent="1">
          <mxGeometry x="220" y="1750" width="100" height="100" as="geometry" />
        </mxCell>
        <mxCell id="AQfkEVB8-soOwDxCn6y5-82" value="" style="rounded=1;whiteSpace=wrap;html=1;dashed=1;dashPattern=8 8;fillColor=none;strokeColor=#0022FF;" vertex="1" parent="1">
          <mxGeometry x="50" y="1610" width="270" height="100" as="geometry" />
        </mxCell>
        <mxCell id="AQfkEVB8-soOwDxCn6y5-74" value="" style="rounded=1;whiteSpace=wrap;html=1;dashed=1;dashPattern=8 8;fillColor=none;strokeColor=#0022FF;" vertex="1" parent="1">
          <mxGeometry x="404" y="1610" width="100" height="100" as="geometry" />
        </mxCell>
        <mxCell id="ASZtRQ1g8Chd7OLadqfl-25" value="" style="rounded=1;whiteSpace=wrap;html=1;dashed=1;dashPattern=8 8;fillColor=none;strokeColor=#0022FF;" parent="1" vertex="1">
          <mxGeometry x="-1060" y="340" width="1350" height="100" as="geometry" />
        </mxCell>
        <mxCell id="ASZtRQ1g8Chd7OLadqfl-39" value="" style="rounded=1;whiteSpace=wrap;html=1;dashed=1;dashPattern=8 8;fillColor=none;strokeColor=#0022FF;" parent="1" vertex="1">
          <mxGeometry x="560" y="340" width="100" height="100" as="geometry" />
        </mxCell>
        <mxCell id="ASZtRQ1g8Chd7OLadqfl-69" value="" style="rounded=1;whiteSpace=wrap;html=1;dashed=1;dashPattern=8 8;fillColor=none;strokeColor=#0022FF;" parent="1" vertex="1">
          <mxGeometry x="-110" y="1290" width="600" height="100" as="geometry" />
        </mxCell>
        <mxCell id="ASZtRQ1g8Chd7OLadqfl-56" value="" style="rounded=1;whiteSpace=wrap;html=1;dashed=1;dashPattern=8 8;fillColor=none;strokeColor=#0022FF;" parent="1" vertex="1">
          <mxGeometry x="560" y="640" width="100" height="1070" as="geometry" />
        </mxCell>
        <mxCell id="ASZtRQ1g8Chd7OLadqfl-6" value="" style="rounded=1;whiteSpace=wrap;html=1;dashed=1;dashPattern=8 8;fillColor=none;strokeColor=#0022FF;" parent="1" vertex="1">
          <mxGeometry x="380" y="340" width="100" height="230" as="geometry" />
        </mxCell>
        <mxCell id="ASZtRQ1g8Chd7OLadqfl-36" value="" style="rounded=1;whiteSpace=wrap;html=1;dashed=1;dashPattern=8 8;fillColor=none;strokeColor=#0022FF;" parent="1" vertex="1">
          <mxGeometry x="560" y="470" width="830" height="100" as="geometry" />
        </mxCell>
        <mxCell id="ASZtRQ1g8Chd7OLadqfl-1" value="&amp;lt;start&amp;gt;" style="ellipse;whiteSpace=wrap;html=1;aspect=fixed;fillColor=#ffe6cc;strokeColor=#d79b00;" parent="1" vertex="1">
          <mxGeometry x="390" y="170" width="80" height="80" as="geometry" />
        </mxCell>
        <mxCell id="ASZtRQ1g8Chd7OLadqfl-2" value="" style="edgeStyle=none;orthogonalLoop=1;jettySize=auto;html=1;rounded=0;exitX=0.5;exitY=1;exitDx=0;exitDy=0;" parent="1" source="ASZtRQ1g8Chd7OLadqfl-1" target="ASZtRQ1g8Chd7OLadqfl-3" edge="1">
          <mxGeometry width="100" relative="1" as="geometry">
            <mxPoint x="310" y="270" as="sourcePoint" />
            <mxPoint x="430" y="310" as="targetPoint" />
            <Array as="points" />
          </mxGeometry>
        </mxCell>
        <mxCell id="ASZtRQ1g8Chd7OLadqfl-7" style="edgeStyle=orthogonalEdgeStyle;rounded=0;orthogonalLoop=1;jettySize=auto;html=1;exitX=0;exitY=0.5;exitDx=0;exitDy=0;" parent="1" source="ASZtRQ1g8Chd7OLadqfl-3" target="ASZtRQ1g8Chd7OLadqfl-8" edge="1">
          <mxGeometry relative="1" as="geometry">
            <mxPoint x="290" y="390.344827586207" as="targetPoint" />
          </mxGeometry>
        </mxCell>
        <mxCell id="ASZtRQ1g8Chd7OLadqfl-3" value="&amp;lt;import_def&amp;gt;" style="ellipse;whiteSpace=wrap;html=1;aspect=fixed;" parent="1" vertex="1">
          <mxGeometry x="390" y="350" width="80" height="80" as="geometry" />
        </mxCell>
        <mxCell id="ASZtRQ1g8Chd7OLadqfl-27" style="edgeStyle=orthogonalEdgeStyle;rounded=0;orthogonalLoop=1;jettySize=auto;html=1;exitX=1;exitY=0.5;exitDx=0;exitDy=0;entryX=0;entryY=0.5;entryDx=0;entryDy=0;" parent="1" source="ASZtRQ1g8Chd7OLadqfl-4" target="ASZtRQ1g8Chd7OLadqfl-26" edge="1">
          <mxGeometry relative="1" as="geometry" />
        </mxCell>
        <mxCell id="ASZtRQ1g8Chd7OLadqfl-38" style="edgeStyle=orthogonalEdgeStyle;rounded=0;orthogonalLoop=1;jettySize=auto;html=1;exitX=1;exitY=0;exitDx=0;exitDy=0;entryX=0;entryY=0.5;entryDx=0;entryDy=0;" parent="1" source="ASZtRQ1g8Chd7OLadqfl-4" target="ASZtRQ1g8Chd7OLadqfl-37" edge="1">
          <mxGeometry relative="1" as="geometry">
            <Array as="points">
              <mxPoint x="458" y="440" />
              <mxPoint x="500" y="440" />
              <mxPoint x="500" y="390" />
            </Array>
          </mxGeometry>
        </mxCell>
        <mxCell id="ASZtRQ1g8Chd7OLadqfl-4" value="&amp;lt;functions&amp;gt;" style="ellipse;whiteSpace=wrap;html=1;aspect=fixed;" parent="1" vertex="1">
          <mxGeometry x="390" y="480" width="80" height="80" as="geometry" />
        </mxCell>
        <mxCell id="ASZtRQ1g8Chd7OLadqfl-5" value="" style="edgeStyle=none;orthogonalLoop=1;jettySize=auto;html=1;rounded=0;exitX=0.5;exitY=1;exitDx=0;exitDy=0;entryX=0.5;entryY=0;entryDx=0;entryDy=0;" parent="1" source="ASZtRQ1g8Chd7OLadqfl-3" target="ASZtRQ1g8Chd7OLadqfl-4" edge="1">
          <mxGeometry width="100" relative="1" as="geometry">
            <mxPoint x="370" y="440" as="sourcePoint" />
            <mxPoint x="470" y="440" as="targetPoint" />
            <Array as="points" />
          </mxGeometry>
        </mxCell>
        <mxCell id="ASZtRQ1g8Chd7OLadqfl-10" style="edgeStyle=orthogonalEdgeStyle;rounded=0;orthogonalLoop=1;jettySize=auto;html=1;exitX=0;exitY=0.5;exitDx=0;exitDy=0;entryX=1;entryY=0.5;entryDx=0;entryDy=0;" parent="1" source="ASZtRQ1g8Chd7OLadqfl-8" target="ASZtRQ1g8Chd7OLadqfl-11" edge="1">
          <mxGeometry relative="1" as="geometry">
            <mxPoint x="100" y="390.344827586207" as="targetPoint" />
          </mxGeometry>
        </mxCell>
        <mxCell id="AQfkEVB8-soOwDxCn6y5-45" style="edgeStyle=orthogonalEdgeStyle;rounded=0;orthogonalLoop=1;jettySize=auto;html=1;exitX=0.5;exitY=1;exitDx=0;exitDy=0;" edge="1" parent="1" source="ASZtRQ1g8Chd7OLadqfl-8" target="AQfkEVB8-soOwDxCn6y5-46">
          <mxGeometry relative="1" as="geometry">
            <mxPoint x="240.030303030303" y="500" as="targetPoint" />
          </mxGeometry>
        </mxCell>
        <mxCell id="ASZtRQ1g8Chd7OLadqfl-8" value="&amp;lt;const&amp;gt;" style="ellipse;whiteSpace=wrap;html=1;aspect=fixed;" parent="1" vertex="1">
          <mxGeometry x="200" y="350" width="80" height="80" as="geometry" />
        </mxCell>
        <mxCell id="ASZtRQ1g8Chd7OLadqfl-14" style="edgeStyle=orthogonalEdgeStyle;rounded=0;orthogonalLoop=1;jettySize=auto;html=1;exitX=0;exitY=0.5;exitDx=0;exitDy=0;entryX=1;entryY=0.5;entryDx=0;entryDy=0;" parent="1" source="ASZtRQ1g8Chd7OLadqfl-11" target="ASZtRQ1g8Chd7OLadqfl-13" edge="1">
          <mxGeometry relative="1" as="geometry" />
        </mxCell>
        <mxCell id="AQfkEVB8-soOwDxCn6y5-47" style="edgeStyle=orthogonalEdgeStyle;rounded=0;orthogonalLoop=1;jettySize=auto;html=1;exitX=0.5;exitY=1;exitDx=0;exitDy=0;entryX=0.5;entryY=0;entryDx=0;entryDy=0;" edge="1" parent="1" source="ASZtRQ1g8Chd7OLadqfl-11" target="AQfkEVB8-soOwDxCn6y5-48">
          <mxGeometry relative="1" as="geometry">
            <mxPoint x="60.030303030303" y="490" as="targetPoint" />
          </mxGeometry>
        </mxCell>
        <mxCell id="ASZtRQ1g8Chd7OLadqfl-11" value="&amp;lt;ifj&amp;gt;" style="ellipse;whiteSpace=wrap;html=1;" parent="1" vertex="1">
          <mxGeometry x="20" y="350" width="80" height="80" as="geometry" />
        </mxCell>
        <mxCell id="ASZtRQ1g8Chd7OLadqfl-20" style="edgeStyle=orthogonalEdgeStyle;rounded=0;orthogonalLoop=1;jettySize=auto;html=1;" parent="1" source="ASZtRQ1g8Chd7OLadqfl-13" target="ASZtRQ1g8Chd7OLadqfl-15" edge="1">
          <mxGeometry relative="1" as="geometry" />
        </mxCell>
        <mxCell id="AQfkEVB8-soOwDxCn6y5-49" style="edgeStyle=orthogonalEdgeStyle;rounded=0;orthogonalLoop=1;jettySize=auto;html=1;exitX=0.5;exitY=1;exitDx=0;exitDy=0;entryX=0.5;entryY=0;entryDx=0;entryDy=0;" edge="1" parent="1" source="ASZtRQ1g8Chd7OLadqfl-13" target="AQfkEVB8-soOwDxCn6y5-50">
          <mxGeometry relative="1" as="geometry">
            <mxPoint x="-119.969696969697" y="470" as="targetPoint" />
          </mxGeometry>
        </mxCell>
        <mxCell id="ASZtRQ1g8Chd7OLadqfl-13" value="&amp;lt;eq&amp;gt;" style="ellipse;whiteSpace=wrap;html=1;" parent="1" vertex="1">
          <mxGeometry x="-160" y="350" width="80" height="80" as="geometry" />
        </mxCell>
        <mxCell id="ASZtRQ1g8Chd7OLadqfl-21" style="edgeStyle=orthogonalEdgeStyle;rounded=0;orthogonalLoop=1;jettySize=auto;html=1;exitX=0;exitY=0.5;exitDx=0;exitDy=0;entryX=1;entryY=0.5;entryDx=0;entryDy=0;" parent="1" source="ASZtRQ1g8Chd7OLadqfl-15" target="ASZtRQ1g8Chd7OLadqfl-16" edge="1">
          <mxGeometry relative="1" as="geometry" />
        </mxCell>
        <mxCell id="AQfkEVB8-soOwDxCn6y5-51" style="edgeStyle=orthogonalEdgeStyle;rounded=0;orthogonalLoop=1;jettySize=auto;html=1;exitX=0.5;exitY=1;exitDx=0;exitDy=0;" edge="1" parent="1" source="ASZtRQ1g8Chd7OLadqfl-15" target="AQfkEVB8-soOwDxCn6y5-52">
          <mxGeometry relative="1" as="geometry">
            <mxPoint x="-299.969696969697" y="500" as="targetPoint" />
          </mxGeometry>
        </mxCell>
        <mxCell id="ASZtRQ1g8Chd7OLadqfl-15" value="&amp;lt;at_import&amp;gt;" style="ellipse;whiteSpace=wrap;html=1;aspect=fixed;" parent="1" vertex="1">
          <mxGeometry x="-340" y="350" width="80" height="80" as="geometry" />
        </mxCell>
        <mxCell id="ASZtRQ1g8Chd7OLadqfl-22" style="edgeStyle=orthogonalEdgeStyle;rounded=0;orthogonalLoop=1;jettySize=auto;html=1;exitX=0;exitY=0.5;exitDx=0;exitDy=0;entryX=1;entryY=0.5;entryDx=0;entryDy=0;" parent="1" source="ASZtRQ1g8Chd7OLadqfl-16" target="ASZtRQ1g8Chd7OLadqfl-17" edge="1">
          <mxGeometry relative="1" as="geometry" />
        </mxCell>
        <mxCell id="AQfkEVB8-soOwDxCn6y5-54" style="edgeStyle=orthogonalEdgeStyle;rounded=0;orthogonalLoop=1;jettySize=auto;html=1;exitX=0.5;exitY=1;exitDx=0;exitDy=0;entryX=0.5;entryY=0;entryDx=0;entryDy=0;" edge="1" parent="1" source="ASZtRQ1g8Chd7OLadqfl-16" target="AQfkEVB8-soOwDxCn6y5-53">
          <mxGeometry relative="1" as="geometry" />
        </mxCell>
        <mxCell id="ASZtRQ1g8Chd7OLadqfl-16" value="&amp;lt;op_bracket&amp;gt;" style="ellipse;whiteSpace=wrap;html=1;aspect=fixed;" parent="1" vertex="1">
          <mxGeometry x="-510" y="350" width="80" height="80" as="geometry" />
        </mxCell>
        <mxCell id="ASZtRQ1g8Chd7OLadqfl-23" style="edgeStyle=orthogonalEdgeStyle;rounded=0;orthogonalLoop=1;jettySize=auto;html=1;exitX=0;exitY=0.5;exitDx=0;exitDy=0;entryX=1;entryY=0.5;entryDx=0;entryDy=0;" parent="1" source="ASZtRQ1g8Chd7OLadqfl-17" target="ASZtRQ1g8Chd7OLadqfl-18" edge="1">
          <mxGeometry relative="1" as="geometry" />
        </mxCell>
        <mxCell id="AQfkEVB8-soOwDxCn6y5-55" style="edgeStyle=orthogonalEdgeStyle;rounded=0;orthogonalLoop=1;jettySize=auto;html=1;exitX=0.5;exitY=1;exitDx=0;exitDy=0;entryX=0.5;entryY=0;entryDx=0;entryDy=0;" edge="1" parent="1" source="ASZtRQ1g8Chd7OLadqfl-17" target="AQfkEVB8-soOwDxCn6y5-56">
          <mxGeometry relative="1" as="geometry">
            <mxPoint x="-650.2727272727273" y="490" as="targetPoint" />
          </mxGeometry>
        </mxCell>
        <mxCell id="ASZtRQ1g8Chd7OLadqfl-17" value="&amp;lt;string_prolog&amp;gt;" style="ellipse;whiteSpace=wrap;html=1;aspect=fixed;fontSize=11;" parent="1" vertex="1">
          <mxGeometry x="-690" y="350" width="80" height="80" as="geometry" />
        </mxCell>
        <mxCell id="ASZtRQ1g8Chd7OLadqfl-24" style="edgeStyle=orthogonalEdgeStyle;rounded=0;orthogonalLoop=1;jettySize=auto;html=1;exitX=0;exitY=0.5;exitDx=0;exitDy=0;entryX=1;entryY=0.5;entryDx=0;entryDy=0;" parent="1" source="ASZtRQ1g8Chd7OLadqfl-18" target="ASZtRQ1g8Chd7OLadqfl-19" edge="1">
          <mxGeometry relative="1" as="geometry" />
        </mxCell>
        <mxCell id="AQfkEVB8-soOwDxCn6y5-57" style="edgeStyle=orthogonalEdgeStyle;rounded=0;orthogonalLoop=1;jettySize=auto;html=1;exitX=0.5;exitY=1;exitDx=0;exitDy=0;entryX=0.5;entryY=0;entryDx=0;entryDy=0;" edge="1" parent="1" source="ASZtRQ1g8Chd7OLadqfl-18" target="AQfkEVB8-soOwDxCn6y5-58">
          <mxGeometry relative="1" as="geometry">
            <mxPoint x="-830.2727272727273" y="480" as="targetPoint" />
          </mxGeometry>
        </mxCell>
        <mxCell id="ASZtRQ1g8Chd7OLadqfl-18" value="&amp;lt;cl_bracket&amp;gt;" style="ellipse;whiteSpace=wrap;html=1;aspect=fixed;" parent="1" vertex="1">
          <mxGeometry x="-870" y="350" width="80" height="80" as="geometry" />
        </mxCell>
        <mxCell id="AQfkEVB8-soOwDxCn6y5-59" style="edgeStyle=orthogonalEdgeStyle;rounded=0;orthogonalLoop=1;jettySize=auto;html=1;exitX=0.5;exitY=1;exitDx=0;exitDy=0;" edge="1" parent="1" source="ASZtRQ1g8Chd7OLadqfl-19" target="AQfkEVB8-soOwDxCn6y5-61">
          <mxGeometry relative="1" as="geometry">
            <mxPoint x="-1010.2727272727273" y="470" as="targetPoint" />
          </mxGeometry>
        </mxCell>
        <mxCell id="ASZtRQ1g8Chd7OLadqfl-19" value="&amp;lt;semicolon&amp;gt;" style="ellipse;whiteSpace=wrap;html=1;aspect=fixed;" parent="1" vertex="1">
          <mxGeometry x="-1050" y="350" width="80" height="80" as="geometry" />
        </mxCell>
        <mxCell id="ASZtRQ1g8Chd7OLadqfl-29" style="edgeStyle=orthogonalEdgeStyle;rounded=0;orthogonalLoop=1;jettySize=auto;html=1;exitX=1;exitY=0.5;exitDx=0;exitDy=0;" parent="1" source="ASZtRQ1g8Chd7OLadqfl-26" target="ASZtRQ1g8Chd7OLadqfl-28" edge="1">
          <mxGeometry relative="1" as="geometry" />
        </mxCell>
        <mxCell id="ASZtRQ1g8Chd7OLadqfl-42" style="edgeStyle=orthogonalEdgeStyle;rounded=0;orthogonalLoop=1;jettySize=auto;html=1;exitX=0.5;exitY=1;exitDx=0;exitDy=0;entryX=0.5;entryY=0;entryDx=0;entryDy=0;" parent="1" source="ASZtRQ1g8Chd7OLadqfl-26" target="ASZtRQ1g8Chd7OLadqfl-43" edge="1">
          <mxGeometry relative="1" as="geometry">
            <mxPoint x="610" y="650" as="targetPoint" />
          </mxGeometry>
        </mxCell>
        <mxCell id="ASZtRQ1g8Chd7OLadqfl-26" value="&amp;lt;fn_def&amp;gt;" style="ellipse;whiteSpace=wrap;html=1;aspect=fixed;" parent="1" vertex="1">
          <mxGeometry x="570" y="480" width="80" height="80" as="geometry" />
        </mxCell>
        <mxCell id="ASZtRQ1g8Chd7OLadqfl-31" style="edgeStyle=orthogonalEdgeStyle;rounded=0;orthogonalLoop=1;jettySize=auto;html=1;exitX=1;exitY=0.5;exitDx=0;exitDy=0;entryX=0;entryY=0.5;entryDx=0;entryDy=0;" parent="1" source="ASZtRQ1g8Chd7OLadqfl-28" target="ASZtRQ1g8Chd7OLadqfl-30" edge="1">
          <mxGeometry relative="1" as="geometry" />
        </mxCell>
        <mxCell id="AQfkEVB8-soOwDxCn6y5-1" style="edgeStyle=orthogonalEdgeStyle;rounded=0;orthogonalLoop=1;jettySize=auto;html=1;exitX=0.5;exitY=1;exitDx=0;exitDy=0;" edge="1" parent="1" source="ASZtRQ1g8Chd7OLadqfl-32" target="AQfkEVB8-soOwDxCn6y5-2">
          <mxGeometry relative="1" as="geometry">
            <mxPoint x="799.7586206896553" y="640" as="targetPoint" />
          </mxGeometry>
        </mxCell>
        <mxCell id="ASZtRQ1g8Chd7OLadqfl-28" value="&amp;lt;op_cr_bracket&amp;gt;" style="ellipse;whiteSpace=wrap;html=1;aspect=fixed;fontSize=10;" parent="1" vertex="1">
          <mxGeometry x="760" y="480" width="80" height="80" as="geometry" />
        </mxCell>
        <mxCell id="ASZtRQ1g8Chd7OLadqfl-33" style="edgeStyle=orthogonalEdgeStyle;rounded=0;orthogonalLoop=1;jettySize=auto;html=1;exitX=1;exitY=0.5;exitDx=0;exitDy=0;entryX=0;entryY=0.5;entryDx=0;entryDy=0;" parent="1" source="ASZtRQ1g8Chd7OLadqfl-30" target="ASZtRQ1g8Chd7OLadqfl-32" edge="1">
          <mxGeometry relative="1" as="geometry" />
        </mxCell>
        <mxCell id="AQfkEVB8-soOwDxCn6y5-7" style="edgeStyle=orthogonalEdgeStyle;rounded=0;orthogonalLoop=1;jettySize=auto;html=1;exitX=0.5;exitY=1;exitDx=0;exitDy=0;entryX=0.5;entryY=0;entryDx=0;entryDy=0;" edge="1" parent="1" source="ASZtRQ1g8Chd7OLadqfl-30" target="AQfkEVB8-soOwDxCn6y5-8">
          <mxGeometry relative="1" as="geometry">
            <mxPoint x="979.7586206896553" y="650" as="targetPoint" />
          </mxGeometry>
        </mxCell>
        <mxCell id="ASZtRQ1g8Chd7OLadqfl-30" value="&amp;lt;fn_body&amp;gt;" style="ellipse;whiteSpace=wrap;html=1;aspect=fixed;" parent="1" vertex="1">
          <mxGeometry x="940" y="480" width="80" height="80" as="geometry" />
        </mxCell>
        <mxCell id="ASZtRQ1g8Chd7OLadqfl-35" style="edgeStyle=orthogonalEdgeStyle;rounded=0;orthogonalLoop=1;jettySize=auto;html=1;exitX=1;exitY=0.5;exitDx=0;exitDy=0;" parent="1" source="ASZtRQ1g8Chd7OLadqfl-32" target="ASZtRQ1g8Chd7OLadqfl-34" edge="1">
          <mxGeometry relative="1" as="geometry" />
        </mxCell>
        <mxCell id="ASZtRQ1g8Chd7OLadqfl-32" value="&amp;lt;cl_cr_bracket&amp;gt;" style="ellipse;whiteSpace=wrap;html=1;aspect=fixed;fontSize=10;" parent="1" vertex="1">
          <mxGeometry x="1120" y="480" width="80" height="80" as="geometry" />
        </mxCell>
        <mxCell id="ASZtRQ1g8Chd7OLadqfl-41" style="edgeStyle=orthogonalEdgeStyle;rounded=0;orthogonalLoop=1;jettySize=auto;html=1;exitX=0.5;exitY=0;exitDx=0;exitDy=0;entryX=1;entryY=0;entryDx=0;entryDy=0;fillColor=#fad7ac;strokeColor=#b46504;" parent="1" source="ASZtRQ1g8Chd7OLadqfl-34" target="ASZtRQ1g8Chd7OLadqfl-4" edge="1">
          <mxGeometry relative="1" as="geometry">
            <Array as="points">
              <mxPoint x="1340" y="460" />
              <mxPoint x="520" y="460" />
              <mxPoint x="520" y="492" />
            </Array>
          </mxGeometry>
        </mxCell>
        <mxCell id="AQfkEVB8-soOwDxCn6y5-5" style="edgeStyle=orthogonalEdgeStyle;rounded=0;orthogonalLoop=1;jettySize=auto;html=1;exitX=0.5;exitY=1;exitDx=0;exitDy=0;" edge="1" parent="1" source="ASZtRQ1g8Chd7OLadqfl-34" target="AQfkEVB8-soOwDxCn6y5-6">
          <mxGeometry relative="1" as="geometry">
            <mxPoint x="1339.7586206896553" y="650" as="targetPoint" />
          </mxGeometry>
        </mxCell>
        <mxCell id="ASZtRQ1g8Chd7OLadqfl-34" value="&amp;lt;semicolon&amp;gt;" style="ellipse;whiteSpace=wrap;html=1;aspect=fixed;" parent="1" vertex="1">
          <mxGeometry x="1300" y="480" width="80" height="80" as="geometry" />
        </mxCell>
        <mxCell id="AQfkEVB8-soOwDxCn6y5-43" style="edgeStyle=orthogonalEdgeStyle;rounded=0;orthogonalLoop=1;jettySize=auto;html=1;exitX=1;exitY=0.5;exitDx=0;exitDy=0;entryX=0;entryY=0.5;entryDx=0;entryDy=0;" edge="1" parent="1" source="ASZtRQ1g8Chd7OLadqfl-37" target="AQfkEVB8-soOwDxCn6y5-44">
          <mxGeometry relative="1" as="geometry">
            <mxPoint x="760" y="389.8888888888888" as="targetPoint" />
          </mxGeometry>
        </mxCell>
        <mxCell id="ASZtRQ1g8Chd7OLadqfl-37" value="&amp;lt;eof&amp;gt;" style="ellipse;whiteSpace=wrap;html=1;aspect=fixed;" parent="1" vertex="1">
          <mxGeometry x="570" y="350" width="80" height="80" as="geometry" />
        </mxCell>
        <mxCell id="ASZtRQ1g8Chd7OLadqfl-55" style="edgeStyle=orthogonalEdgeStyle;rounded=0;orthogonalLoop=1;jettySize=auto;html=1;exitX=0.5;exitY=1;exitDx=0;exitDy=0;entryX=0.5;entryY=0;entryDx=0;entryDy=0;" parent="1" source="ASZtRQ1g8Chd7OLadqfl-43" target="ASZtRQ1g8Chd7OLadqfl-44" edge="1">
          <mxGeometry relative="1" as="geometry" />
        </mxCell>
        <mxCell id="AQfkEVB8-soOwDxCn6y5-62" style="edgeStyle=orthogonalEdgeStyle;rounded=0;orthogonalLoop=1;jettySize=auto;html=1;exitX=0;exitY=0.5;exitDx=0;exitDy=0;entryX=1;entryY=0.5;entryDx=0;entryDy=0;" edge="1" parent="1" source="ASZtRQ1g8Chd7OLadqfl-43" target="AQfkEVB8-soOwDxCn6y5-63">
          <mxGeometry relative="1" as="geometry">
            <mxPoint x="510" y="690.1666666666667" as="targetPoint" />
          </mxGeometry>
        </mxCell>
        <mxCell id="ASZtRQ1g8Chd7OLadqfl-43" value="&amp;lt;pub&amp;gt;" style="ellipse;whiteSpace=wrap;html=1;aspect=fixed;" parent="1" vertex="1">
          <mxGeometry x="570" y="650" width="80" height="80" as="geometry" />
        </mxCell>
        <mxCell id="ASZtRQ1g8Chd7OLadqfl-54" style="edgeStyle=orthogonalEdgeStyle;rounded=0;orthogonalLoop=1;jettySize=auto;html=1;exitX=0.5;exitY=1;exitDx=0;exitDy=0;entryX=0.5;entryY=0;entryDx=0;entryDy=0;" parent="1" source="ASZtRQ1g8Chd7OLadqfl-44" target="ASZtRQ1g8Chd7OLadqfl-45" edge="1">
          <mxGeometry relative="1" as="geometry" />
        </mxCell>
        <mxCell id="AQfkEVB8-soOwDxCn6y5-64" style="edgeStyle=orthogonalEdgeStyle;rounded=0;orthogonalLoop=1;jettySize=auto;html=1;exitX=0;exitY=0.5;exitDx=0;exitDy=0;entryX=1;entryY=0.5;entryDx=0;entryDy=0;" edge="1" parent="1" source="ASZtRQ1g8Chd7OLadqfl-44" target="AQfkEVB8-soOwDxCn6y5-65">
          <mxGeometry relative="1" as="geometry">
            <mxPoint x="530" y="860.2857142857144" as="targetPoint" />
          </mxGeometry>
        </mxCell>
        <mxCell id="ASZtRQ1g8Chd7OLadqfl-44" value="&amp;lt;fn&amp;gt;" style="ellipse;whiteSpace=wrap;html=1;aspect=fixed;" parent="1" vertex="1">
          <mxGeometry x="570" y="820" width="80" height="80" as="geometry" />
        </mxCell>
        <mxCell id="ASZtRQ1g8Chd7OLadqfl-53" style="edgeStyle=orthogonalEdgeStyle;rounded=0;orthogonalLoop=1;jettySize=auto;html=1;exitX=0.5;exitY=1;exitDx=0;exitDy=0;" parent="1" source="ASZtRQ1g8Chd7OLadqfl-45" target="ASZtRQ1g8Chd7OLadqfl-46" edge="1">
          <mxGeometry relative="1" as="geometry" />
        </mxCell>
        <mxCell id="ASZtRQ1g8Chd7OLadqfl-68" style="edgeStyle=orthogonalEdgeStyle;rounded=0;orthogonalLoop=1;jettySize=auto;html=1;exitX=0;exitY=0.5;exitDx=0;exitDy=0;entryX=1;entryY=0.5;entryDx=0;entryDy=0;" parent="1" source="ASZtRQ1g8Chd7OLadqfl-45" target="ASZtRQ1g8Chd7OLadqfl-65" edge="1">
          <mxGeometry relative="1" as="geometry" />
        </mxCell>
        <mxCell id="ASZtRQ1g8Chd7OLadqfl-45" value="&amp;lt;id&amp;gt;" style="ellipse;whiteSpace=wrap;html=1;aspect=fixed;" parent="1" vertex="1">
          <mxGeometry x="570" y="980" width="80" height="80" as="geometry" />
        </mxCell>
        <mxCell id="ASZtRQ1g8Chd7OLadqfl-52" style="edgeStyle=orthogonalEdgeStyle;rounded=0;orthogonalLoop=1;jettySize=auto;html=1;exitX=0.5;exitY=1;exitDx=0;exitDy=0;entryX=0.5;entryY=0;entryDx=0;entryDy=0;" parent="1" source="ASZtRQ1g8Chd7OLadqfl-46" target="ASZtRQ1g8Chd7OLadqfl-47" edge="1">
          <mxGeometry relative="1" as="geometry" />
        </mxCell>
        <mxCell id="AQfkEVB8-soOwDxCn6y5-66" style="edgeStyle=orthogonalEdgeStyle;rounded=0;orthogonalLoop=1;jettySize=auto;html=1;exitX=0;exitY=0.5;exitDx=0;exitDy=0;entryX=1;entryY=0.5;entryDx=0;entryDy=0;" edge="1" parent="1" source="ASZtRQ1g8Chd7OLadqfl-46" target="AQfkEVB8-soOwDxCn6y5-67">
          <mxGeometry relative="1" as="geometry">
            <mxPoint x="520" y="1180.2857142857144" as="targetPoint" />
          </mxGeometry>
        </mxCell>
        <mxCell id="ASZtRQ1g8Chd7OLadqfl-46" value="&amp;lt;op_bracket&amp;gt;" style="ellipse;whiteSpace=wrap;html=1;aspect=fixed;" parent="1" vertex="1">
          <mxGeometry x="570" y="1140" width="80" height="80" as="geometry" />
        </mxCell>
        <mxCell id="ASZtRQ1g8Chd7OLadqfl-51" style="edgeStyle=orthogonalEdgeStyle;rounded=0;orthogonalLoop=1;jettySize=auto;html=1;exitX=0.5;exitY=1;exitDx=0;exitDy=0;entryX=0.5;entryY=0;entryDx=0;entryDy=0;" parent="1" source="ASZtRQ1g8Chd7OLadqfl-47" target="ASZtRQ1g8Chd7OLadqfl-48" edge="1">
          <mxGeometry relative="1" as="geometry" />
        </mxCell>
        <mxCell id="ASZtRQ1g8Chd7OLadqfl-57" style="edgeStyle=orthogonalEdgeStyle;rounded=0;orthogonalLoop=1;jettySize=auto;html=1;exitX=0;exitY=0.5;exitDx=0;exitDy=0;" parent="1" source="ASZtRQ1g8Chd7OLadqfl-47" target="ASZtRQ1g8Chd7OLadqfl-58" edge="1">
          <mxGeometry relative="1" as="geometry">
            <mxPoint x="490" y="1340.3333333333335" as="targetPoint" />
          </mxGeometry>
        </mxCell>
        <mxCell id="AQfkEVB8-soOwDxCn6y5-114" style="edgeStyle=orthogonalEdgeStyle;rounded=0;orthogonalLoop=1;jettySize=auto;html=1;exitX=1;exitY=0.5;exitDx=0;exitDy=0;entryX=0;entryY=0.5;entryDx=0;entryDy=0;" edge="1" parent="1" source="ASZtRQ1g8Chd7OLadqfl-47" target="AQfkEVB8-soOwDxCn6y5-115">
          <mxGeometry relative="1" as="geometry">
            <mxPoint x="720" y="1340" as="targetPoint" />
          </mxGeometry>
        </mxCell>
        <mxCell id="ASZtRQ1g8Chd7OLadqfl-47" value="&amp;lt;params&amp;gt;" style="ellipse;whiteSpace=wrap;html=1;aspect=fixed;" parent="1" vertex="1">
          <mxGeometry x="570" y="1300" width="80" height="80" as="geometry" />
        </mxCell>
        <mxCell id="ASZtRQ1g8Chd7OLadqfl-50" style="edgeStyle=orthogonalEdgeStyle;rounded=0;orthogonalLoop=1;jettySize=auto;html=1;exitX=0.5;exitY=1;exitDx=0;exitDy=0;" parent="1" source="ASZtRQ1g8Chd7OLadqfl-48" target="ASZtRQ1g8Chd7OLadqfl-49" edge="1">
          <mxGeometry relative="1" as="geometry" />
        </mxCell>
        <mxCell id="AQfkEVB8-soOwDxCn6y5-68" style="edgeStyle=orthogonalEdgeStyle;rounded=0;orthogonalLoop=1;jettySize=auto;html=1;exitX=0;exitY=0.5;exitDx=0;exitDy=0;entryX=0.5;entryY=0;entryDx=0;entryDy=0;" edge="1" parent="1" source="ASZtRQ1g8Chd7OLadqfl-48" target="AQfkEVB8-soOwDxCn6y5-69">
          <mxGeometry relative="1" as="geometry">
            <mxPoint x="520" y="1500.2857142857144" as="targetPoint" />
          </mxGeometry>
        </mxCell>
        <mxCell id="ASZtRQ1g8Chd7OLadqfl-48" value="&amp;lt;cl_bracket&amp;gt;" style="ellipse;whiteSpace=wrap;html=1;aspect=fixed;" parent="1" vertex="1">
          <mxGeometry x="570" y="1460" width="80" height="80" as="geometry" />
        </mxCell>
        <mxCell id="AQfkEVB8-soOwDxCn6y5-70" style="edgeStyle=orthogonalEdgeStyle;rounded=0;orthogonalLoop=1;jettySize=auto;html=1;exitX=0;exitY=0.5;exitDx=0;exitDy=0;entryX=1;entryY=0.5;entryDx=0;entryDy=0;" edge="1" parent="1" source="ASZtRQ1g8Chd7OLadqfl-49" target="AQfkEVB8-soOwDxCn6y5-71">
          <mxGeometry relative="1" as="geometry">
            <mxPoint x="500" y="1650" as="targetPoint" />
          </mxGeometry>
        </mxCell>
        <mxCell id="AQfkEVB8-soOwDxCn6y5-72" style="edgeStyle=orthogonalEdgeStyle;rounded=0;orthogonalLoop=1;jettySize=auto;html=1;exitX=0;exitY=0.5;exitDx=0;exitDy=0;entryX=1;entryY=0.5;entryDx=0;entryDy=0;" edge="1" parent="1" source="ASZtRQ1g8Chd7OLadqfl-49" target="AQfkEVB8-soOwDxCn6y5-73">
          <mxGeometry relative="1" as="geometry">
            <mxPoint x="550" y="1812.857142857143" as="targetPoint" />
          </mxGeometry>
        </mxCell>
        <mxCell id="ASZtRQ1g8Chd7OLadqfl-49" value="&amp;lt;type_fndef&amp;gt;" style="ellipse;whiteSpace=wrap;html=1;aspect=fixed;" parent="1" vertex="1">
          <mxGeometry x="570" y="1620" width="80" height="80" as="geometry" />
        </mxCell>
        <mxCell id="ASZtRQ1g8Chd7OLadqfl-60" style="edgeStyle=orthogonalEdgeStyle;rounded=0;orthogonalLoop=1;jettySize=auto;html=1;exitX=0;exitY=0.5;exitDx=0;exitDy=0;entryX=1;entryY=0.5;entryDx=0;entryDy=0;" parent="1" source="ASZtRQ1g8Chd7OLadqfl-58" target="ASZtRQ1g8Chd7OLadqfl-59" edge="1">
          <mxGeometry relative="1" as="geometry" />
        </mxCell>
        <mxCell id="AQfkEVB8-soOwDxCn6y5-107" style="edgeStyle=orthogonalEdgeStyle;rounded=0;orthogonalLoop=1;jettySize=auto;html=1;exitX=0.5;exitY=0;exitDx=0;exitDy=0;entryX=0;entryY=0.5;entryDx=0;entryDy=0;" edge="1" parent="1" source="ASZtRQ1g8Chd7OLadqfl-58" target="ASZtRQ1g8Chd7OLadqfl-65">
          <mxGeometry relative="1" as="geometry">
            <Array as="points">
              <mxPoint x="440" y="1260" />
              <mxPoint x="394" y="1260" />
              <mxPoint x="394" y="1020" />
            </Array>
          </mxGeometry>
        </mxCell>
        <mxCell id="ASZtRQ1g8Chd7OLadqfl-58" value="&amp;lt;id&amp;gt;" style="ellipse;whiteSpace=wrap;html=1;aspect=fixed;" parent="1" vertex="1">
          <mxGeometry x="400" y="1300.0033333333333" width="80" height="80" as="geometry" />
        </mxCell>
        <mxCell id="ASZtRQ1g8Chd7OLadqfl-63" style="edgeStyle=orthogonalEdgeStyle;rounded=0;orthogonalLoop=1;jettySize=auto;html=1;exitX=0;exitY=0.5;exitDx=0;exitDy=0;entryX=1;entryY=0.5;entryDx=0;entryDy=0;" parent="1" source="ASZtRQ1g8Chd7OLadqfl-59" target="ASZtRQ1g8Chd7OLadqfl-62" edge="1">
          <mxGeometry relative="1" as="geometry" />
        </mxCell>
        <mxCell id="AQfkEVB8-soOwDxCn6y5-108" style="edgeStyle=orthogonalEdgeStyle;rounded=0;orthogonalLoop=1;jettySize=auto;html=1;exitX=0.5;exitY=0;exitDx=0;exitDy=0;entryX=0.5;entryY=1;entryDx=0;entryDy=0;" edge="1" parent="1" source="ASZtRQ1g8Chd7OLadqfl-59" target="AQfkEVB8-soOwDxCn6y5-109">
          <mxGeometry relative="1" as="geometry">
            <mxPoint x="280.2962962962961" y="1250" as="targetPoint" />
          </mxGeometry>
        </mxCell>
        <mxCell id="ASZtRQ1g8Chd7OLadqfl-59" value="&amp;lt;colon&amp;gt;" style="ellipse;whiteSpace=wrap;html=1;aspect=fixed;" parent="1" vertex="1">
          <mxGeometry x="240" y="1300" width="80" height="80" as="geometry" />
        </mxCell>
        <mxCell id="ASZtRQ1g8Chd7OLadqfl-72" style="edgeStyle=orthogonalEdgeStyle;rounded=0;orthogonalLoop=1;jettySize=auto;html=1;exitX=0.5;exitY=0;exitDx=0;exitDy=0;entryX=0;entryY=0;entryDx=0;entryDy=0;fillColor=#fad7ac;strokeColor=#b46504;" parent="1" source="ASZtRQ1g8Chd7OLadqfl-61" target="ASZtRQ1g8Chd7OLadqfl-47" edge="1">
          <mxGeometry relative="1" as="geometry">
            <Array as="points">
              <mxPoint x="-60" y="1280" />
              <mxPoint x="582" y="1280" />
            </Array>
          </mxGeometry>
        </mxCell>
        <mxCell id="AQfkEVB8-soOwDxCn6y5-110" style="edgeStyle=orthogonalEdgeStyle;rounded=0;orthogonalLoop=1;jettySize=auto;html=1;exitX=0;exitY=0.5;exitDx=0;exitDy=0;entryX=1;entryY=0.5;entryDx=0;entryDy=0;" edge="1" parent="1" source="ASZtRQ1g8Chd7OLadqfl-61" target="AQfkEVB8-soOwDxCn6y5-111">
          <mxGeometry relative="1" as="geometry">
            <mxPoint x="-160" y="1339.6842105263158" as="targetPoint" />
          </mxGeometry>
        </mxCell>
        <mxCell id="ASZtRQ1g8Chd7OLadqfl-61" value="&amp;lt;comma&amp;gt;" style="ellipse;whiteSpace=wrap;html=1;aspect=fixed;" parent="1" vertex="1">
          <mxGeometry x="-100" y="1300" width="80" height="80" as="geometry" />
        </mxCell>
        <mxCell id="ASZtRQ1g8Chd7OLadqfl-64" style="edgeStyle=orthogonalEdgeStyle;rounded=0;orthogonalLoop=1;jettySize=auto;html=1;exitX=0;exitY=0.5;exitDx=0;exitDy=0;entryX=1;entryY=0.5;entryDx=0;entryDy=0;" parent="1" source="ASZtRQ1g8Chd7OLadqfl-62" target="ASZtRQ1g8Chd7OLadqfl-61" edge="1">
          <mxGeometry relative="1" as="geometry" />
        </mxCell>
        <mxCell id="AQfkEVB8-soOwDxCn6y5-112" style="edgeStyle=orthogonalEdgeStyle;rounded=0;orthogonalLoop=1;jettySize=auto;html=1;exitX=0.5;exitY=1;exitDx=0;exitDy=0;fillColor=#b0e3e6;strokeColor=#0e8088;" edge="1" parent="1" source="ASZtRQ1g8Chd7OLadqfl-62" target="AQfkEVB8-soOwDxCn6y5-74">
          <mxGeometry relative="1" as="geometry">
            <Array as="points">
              <mxPoint x="110" y="1430" />
              <mxPoint x="370" y="1430" />
              <mxPoint x="370" y="1580" />
              <mxPoint x="454" y="1580" />
            </Array>
          </mxGeometry>
        </mxCell>
        <mxCell id="ASZtRQ1g8Chd7OLadqfl-62" value="&amp;lt;type&amp;gt;" style="ellipse;whiteSpace=wrap;html=1;aspect=fixed;" parent="1" vertex="1">
          <mxGeometry x="70" y="1300" width="80" height="80" as="geometry" />
        </mxCell>
        <mxCell id="ASZtRQ1g8Chd7OLadqfl-65" value="ID" style="ellipse;whiteSpace=wrap;html=1;aspect=fixed;fillColor=#b0e3e6;strokeColor=#0e8088;" parent="1" vertex="1">
          <mxGeometry x="414" y="980" width="80" height="80" as="geometry" />
        </mxCell>
        <mxCell id="AQfkEVB8-soOwDxCn6y5-2" value="&lt;div&gt;CLOSING&lt;/div&gt;&lt;div&gt;_CURLY&lt;div&gt;_BRACKET&lt;/div&gt;&lt;/div&gt;" style="ellipse;whiteSpace=wrap;fillColor=#b0e3e6;strokeColor=#0e8088;html=1;align=center;" vertex="1" parent="1">
          <mxGeometry x="1120" y="650" width="80" height="80" as="geometry" />
        </mxCell>
        <mxCell id="AQfkEVB8-soOwDxCn6y5-3" style="edgeStyle=orthogonalEdgeStyle;rounded=0;orthogonalLoop=1;jettySize=auto;html=1;exitX=0.5;exitY=1;exitDx=0;exitDy=0;" edge="1" parent="1" target="AQfkEVB8-soOwDxCn6y5-4" source="ASZtRQ1g8Chd7OLadqfl-28">
          <mxGeometry relative="1" as="geometry">
            <mxPoint x="809.7586206896553" y="650" as="targetPoint" />
            <mxPoint x="810" y="570" as="sourcePoint" />
          </mxGeometry>
        </mxCell>
        <mxCell id="AQfkEVB8-soOwDxCn6y5-4" value="OPENING&lt;div&gt;_CURLY&lt;div&gt;_BRACKET&lt;/div&gt;&lt;/div&gt;" style="ellipse;whiteSpace=wrap;fillColor=#b0e3e6;strokeColor=#0e8088;html=1;align=center;" vertex="1" parent="1">
          <mxGeometry x="760" y="650" width="80" height="80" as="geometry" />
        </mxCell>
        <mxCell id="AQfkEVB8-soOwDxCn6y5-6" value="SEMICOLON" style="ellipse;whiteSpace=wrap;html=1;fillColor=#b0e3e6;strokeColor=#0e8088;" vertex="1" parent="1">
          <mxGeometry x="1300" y="650" width="80" height="80" as="geometry" />
        </mxCell>
        <mxCell id="AQfkEVB8-soOwDxCn6y5-10" style="edgeStyle=orthogonalEdgeStyle;rounded=0;orthogonalLoop=1;jettySize=auto;html=1;exitX=1;exitY=0.5;exitDx=0;exitDy=0;entryX=0;entryY=0.5;entryDx=0;entryDy=0;" edge="1" parent="1" source="AQfkEVB8-soOwDxCn6y5-8" target="AQfkEVB8-soOwDxCn6y5-11">
          <mxGeometry relative="1" as="geometry">
            <mxPoint x="1050" y="910" as="targetPoint" />
            <Array as="points">
              <mxPoint x="1060" y="1040" />
              <mxPoint x="1060" y="860" />
            </Array>
          </mxGeometry>
        </mxCell>
        <mxCell id="AQfkEVB8-soOwDxCn6y5-13" style="edgeStyle=orthogonalEdgeStyle;rounded=0;orthogonalLoop=1;jettySize=auto;html=1;exitX=1;exitY=0.5;exitDx=0;exitDy=0;entryX=0;entryY=0.5;entryDx=0;entryDy=0;" edge="1" parent="1" source="AQfkEVB8-soOwDxCn6y5-8" target="AQfkEVB8-soOwDxCn6y5-14">
          <mxGeometry relative="1" as="geometry">
            <mxPoint x="1130" y="1040.095238095238" as="targetPoint" />
          </mxGeometry>
        </mxCell>
        <mxCell id="AQfkEVB8-soOwDxCn6y5-17" style="edgeStyle=orthogonalEdgeStyle;rounded=0;orthogonalLoop=1;jettySize=auto;html=1;exitX=1;exitY=0.5;exitDx=0;exitDy=0;entryX=0;entryY=0.5;entryDx=0;entryDy=0;" edge="1" parent="1" source="AQfkEVB8-soOwDxCn6y5-8" target="AQfkEVB8-soOwDxCn6y5-19">
          <mxGeometry relative="1" as="geometry">
            <mxPoint x="1080" y="1190" as="targetPoint" />
            <Array as="points">
              <mxPoint x="1060" y="1040" />
              <mxPoint x="1060" y="1209" />
            </Array>
          </mxGeometry>
        </mxCell>
        <mxCell id="AQfkEVB8-soOwDxCn6y5-22" style="edgeStyle=orthogonalEdgeStyle;rounded=0;orthogonalLoop=1;jettySize=auto;html=1;exitX=1;exitY=0.5;exitDx=0;exitDy=0;entryX=0;entryY=0.5;entryDx=0;entryDy=0;" edge="1" parent="1" source="AQfkEVB8-soOwDxCn6y5-8" target="AQfkEVB8-soOwDxCn6y5-23">
          <mxGeometry relative="1" as="geometry">
            <mxPoint x="1060" y="1390" as="targetPoint" />
            <Array as="points">
              <mxPoint x="1060" y="1040" />
              <mxPoint x="1060" y="1750" />
            </Array>
          </mxGeometry>
        </mxCell>
        <mxCell id="AQfkEVB8-soOwDxCn6y5-26" style="edgeStyle=orthogonalEdgeStyle;rounded=0;orthogonalLoop=1;jettySize=auto;html=1;exitX=1;exitY=0.5;exitDx=0;exitDy=0;entryX=0;entryY=0.5;entryDx=0;entryDy=0;" edge="1" parent="1" source="AQfkEVB8-soOwDxCn6y5-8" target="AQfkEVB8-soOwDxCn6y5-27">
          <mxGeometry relative="1" as="geometry">
            <mxPoint x="1060" y="1590.0000000000005" as="targetPoint" />
            <Array as="points">
              <mxPoint x="1060" y="1040" />
              <mxPoint x="1060" y="2060" />
            </Array>
          </mxGeometry>
        </mxCell>
        <mxCell id="AQfkEVB8-soOwDxCn6y5-30" style="edgeStyle=orthogonalEdgeStyle;rounded=0;orthogonalLoop=1;jettySize=auto;html=1;exitX=1;exitY=0.5;exitDx=0;exitDy=0;entryX=0;entryY=0.5;entryDx=0;entryDy=0;" edge="1" parent="1" source="AQfkEVB8-soOwDxCn6y5-8" target="AQfkEVB8-soOwDxCn6y5-31">
          <mxGeometry relative="1" as="geometry">
            <mxPoint x="1050" y="1761.2903225806451" as="targetPoint" />
            <Array as="points">
              <mxPoint x="1060" y="1040" />
              <mxPoint x="1060" y="2390" />
            </Array>
          </mxGeometry>
        </mxCell>
        <mxCell id="AQfkEVB8-soOwDxCn6y5-35" style="edgeStyle=orthogonalEdgeStyle;rounded=0;orthogonalLoop=1;jettySize=auto;html=1;exitX=1;exitY=0.5;exitDx=0;exitDy=0;entryX=0;entryY=0.5;entryDx=0;entryDy=0;" edge="1" parent="1" source="AQfkEVB8-soOwDxCn6y5-8" target="AQfkEVB8-soOwDxCn6y5-36">
          <mxGeometry relative="1" as="geometry">
            <mxPoint x="1060" y="1942" as="targetPoint" />
            <Array as="points">
              <mxPoint x="1060" y="1040" />
              <mxPoint x="1060" y="2760" />
            </Array>
          </mxGeometry>
        </mxCell>
        <mxCell id="AQfkEVB8-soOwDxCn6y5-39" style="edgeStyle=orthogonalEdgeStyle;rounded=0;orthogonalLoop=1;jettySize=auto;html=1;exitX=1;exitY=0.5;exitDx=0;exitDy=0;entryX=0;entryY=0.5;entryDx=0;entryDy=0;" edge="1" parent="1" source="AQfkEVB8-soOwDxCn6y5-8" target="AQfkEVB8-soOwDxCn6y5-40">
          <mxGeometry relative="1" as="geometry">
            <mxPoint x="1060" y="2160" as="targetPoint" />
            <Array as="points">
              <mxPoint x="1060" y="1040" />
              <mxPoint x="1060" y="3210" />
            </Array>
          </mxGeometry>
        </mxCell>
        <mxCell id="AQfkEVB8-soOwDxCn6y5-8" value="&lt;i&gt;&lt;b&gt;separator&lt;/b&gt;&lt;/i&gt;" style="ellipse;whiteSpace=wrap;html=1;fillColor=#d0cee2;strokeColor=#56517e;" vertex="1" parent="1">
          <mxGeometry x="940" y="1000" width="80" height="80" as="geometry" />
        </mxCell>
        <mxCell id="AQfkEVB8-soOwDxCn6y5-11" value="&lt;font style=&quot;font-size: 30px;&quot;&gt;ε&lt;/font&gt;" style="ellipse;whiteSpace=wrap;html=1;fillColor=#ffe6cc;strokeColor=#d79b00;" vertex="1" parent="1">
          <mxGeometry x="1120" y="820" width="80" height="80" as="geometry" />
        </mxCell>
        <mxCell id="AQfkEVB8-soOwDxCn6y5-15" style="edgeStyle=orthogonalEdgeStyle;rounded=0;orthogonalLoop=1;jettySize=auto;html=1;exitX=0.5;exitY=1;exitDx=0;exitDy=0;fillColor=#fad7ac;strokeColor=#b46504;" edge="1" parent="1" source="AQfkEVB8-soOwDxCn6y5-14" target="AQfkEVB8-soOwDxCn6y5-8">
          <mxGeometry relative="1" as="geometry">
            <mxPoint x="980" y="1080.095238095238" as="targetPoint" />
            <Array as="points">
              <mxPoint x="1160" y="1100" />
              <mxPoint x="980" y="1100" />
            </Array>
          </mxGeometry>
        </mxCell>
        <mxCell id="AQfkEVB8-soOwDxCn6y5-116" style="edgeStyle=orthogonalEdgeStyle;rounded=0;orthogonalLoop=1;jettySize=auto;html=1;exitX=1;exitY=0.5;exitDx=0;exitDy=0;entryX=0;entryY=0.5;entryDx=0;entryDy=0;" edge="1" parent="1" source="AQfkEVB8-soOwDxCn6y5-14" target="AQfkEVB8-soOwDxCn6y5-117">
          <mxGeometry relative="1" as="geometry">
            <mxPoint x="1300" y="1040.3333333333335" as="targetPoint" />
          </mxGeometry>
        </mxCell>
        <mxCell id="AQfkEVB8-soOwDxCn6y5-14" value="&amp;lt;fn_return&amp;gt;" style="ellipse;whiteSpace=wrap;html=1;" vertex="1" parent="1">
          <mxGeometry x="1120" y="1000" width="80" height="80" as="geometry" />
        </mxCell>
        <mxCell id="AQfkEVB8-soOwDxCn6y5-20" style="edgeStyle=orthogonalEdgeStyle;rounded=0;orthogonalLoop=1;jettySize=auto;html=1;exitX=0.5;exitY=1;exitDx=0;exitDy=0;entryX=0.5;entryY=1;entryDx=0;entryDy=0;fillColor=#fad7ac;strokeColor=#b46504;" edge="1" parent="1" source="AQfkEVB8-soOwDxCn6y5-19" target="AQfkEVB8-soOwDxCn6y5-8">
          <mxGeometry relative="1" as="geometry">
            <Array as="points">
              <mxPoint x="1160" y="1270" />
              <mxPoint x="980" y="1270" />
            </Array>
          </mxGeometry>
        </mxCell>
        <mxCell id="AQfkEVB8-soOwDxCn6y5-139" value="" style="edgeStyle=orthogonalEdgeStyle;rounded=0;orthogonalLoop=1;jettySize=auto;html=1;" edge="1" parent="1" source="AQfkEVB8-soOwDxCn6y5-19" target="AQfkEVB8-soOwDxCn6y5-138">
          <mxGeometry relative="1" as="geometry" />
        </mxCell>
        <mxCell id="AQfkEVB8-soOwDxCn6y5-19" value="&amp;lt;cycle&amp;gt;" style="ellipse;whiteSpace=wrap;html=1;" vertex="1" parent="1">
          <mxGeometry x="1120" y="1169" width="80" height="80" as="geometry" />
        </mxCell>
        <mxCell id="AQfkEVB8-soOwDxCn6y5-24" style="edgeStyle=orthogonalEdgeStyle;rounded=0;orthogonalLoop=1;jettySize=auto;html=1;exitX=0.5;exitY=1;exitDx=0;exitDy=0;fillColor=#fad7ac;strokeColor=#b46504;" edge="1" parent="1" source="AQfkEVB8-soOwDxCn6y5-23">
          <mxGeometry relative="1" as="geometry">
            <mxPoint x="980" y="1080" as="targetPoint" />
          </mxGeometry>
        </mxCell>
        <mxCell id="AQfkEVB8-soOwDxCn6y5-201" value="" style="edgeStyle=orthogonalEdgeStyle;rounded=0;orthogonalLoop=1;jettySize=auto;html=1;" edge="1" parent="1" source="AQfkEVB8-soOwDxCn6y5-23" target="AQfkEVB8-soOwDxCn6y5-200">
          <mxGeometry relative="1" as="geometry" />
        </mxCell>
        <mxCell id="AQfkEVB8-soOwDxCn6y5-23" value="&amp;lt;if_else&amp;gt;" style="ellipse;whiteSpace=wrap;html=1;" vertex="1" parent="1">
          <mxGeometry x="1160" y="1710" width="80" height="80" as="geometry" />
        </mxCell>
        <mxCell id="AQfkEVB8-soOwDxCn6y5-28" style="edgeStyle=orthogonalEdgeStyle;rounded=0;orthogonalLoop=1;jettySize=auto;html=1;exitX=0.5;exitY=1;exitDx=0;exitDy=0;entryX=0.5;entryY=1;entryDx=0;entryDy=0;fillColor=#fad7ac;strokeColor=#b46504;" edge="1" parent="1" source="AQfkEVB8-soOwDxCn6y5-27" target="AQfkEVB8-soOwDxCn6y5-8">
          <mxGeometry relative="1" as="geometry" />
        </mxCell>
        <mxCell id="AQfkEVB8-soOwDxCn6y5-227" value="" style="edgeStyle=orthogonalEdgeStyle;rounded=0;orthogonalLoop=1;jettySize=auto;html=1;" edge="1" parent="1" source="AQfkEVB8-soOwDxCn6y5-27" target="AQfkEVB8-soOwDxCn6y5-226">
          <mxGeometry relative="1" as="geometry" />
        </mxCell>
        <mxCell id="AQfkEVB8-soOwDxCn6y5-27" value="&amp;lt;ifj_call&amp;gt;" style="ellipse;whiteSpace=wrap;html=1;" vertex="1" parent="1">
          <mxGeometry x="1160" y="2020" width="80" height="80" as="geometry" />
        </mxCell>
        <mxCell id="AQfkEVB8-soOwDxCn6y5-33" style="edgeStyle=orthogonalEdgeStyle;rounded=0;orthogonalLoop=1;jettySize=auto;html=1;exitX=0.5;exitY=1;exitDx=0;exitDy=0;fillColor=#fad7ac;strokeColor=#b46504;" edge="1" parent="1" source="AQfkEVB8-soOwDxCn6y5-31">
          <mxGeometry relative="1" as="geometry">
            <mxPoint x="980" y="1080" as="targetPoint" />
          </mxGeometry>
        </mxCell>
        <mxCell id="AQfkEVB8-soOwDxCn6y5-301" value="" style="edgeStyle=orthogonalEdgeStyle;rounded=0;orthogonalLoop=1;jettySize=auto;html=1;" edge="1" parent="1" source="AQfkEVB8-soOwDxCn6y5-31" target="AQfkEVB8-soOwDxCn6y5-300">
          <mxGeometry relative="1" as="geometry" />
        </mxCell>
        <mxCell id="AQfkEVB8-soOwDxCn6y5-31" value="&amp;lt;fn_call&amp;gt;" style="ellipse;whiteSpace=wrap;html=1;" vertex="1" parent="1">
          <mxGeometry x="1160" y="2350" width="80" height="80" as="geometry" />
        </mxCell>
        <mxCell id="AQfkEVB8-soOwDxCn6y5-37" style="edgeStyle=orthogonalEdgeStyle;rounded=0;orthogonalLoop=1;jettySize=auto;html=1;exitX=0.5;exitY=1;exitDx=0;exitDy=0;entryX=0.5;entryY=1;entryDx=0;entryDy=0;fillColor=#fad7ac;strokeColor=#b46504;" edge="1" parent="1" source="AQfkEVB8-soOwDxCn6y5-36" target="AQfkEVB8-soOwDxCn6y5-8">
          <mxGeometry relative="1" as="geometry" />
        </mxCell>
        <mxCell id="AQfkEVB8-soOwDxCn6y5-322" value="" style="edgeStyle=orthogonalEdgeStyle;rounded=0;orthogonalLoop=1;jettySize=auto;html=1;" edge="1" parent="1" source="AQfkEVB8-soOwDxCn6y5-36" target="AQfkEVB8-soOwDxCn6y5-321">
          <mxGeometry relative="1" as="geometry" />
        </mxCell>
        <mxCell id="AQfkEVB8-soOwDxCn6y5-36" value="&amp;lt;assign&amp;gt;" style="ellipse;whiteSpace=wrap;html=1;" vertex="1" parent="1">
          <mxGeometry x="1150" y="2720" width="80" height="80" as="geometry" />
        </mxCell>
        <mxCell id="AQfkEVB8-soOwDxCn6y5-41" style="edgeStyle=orthogonalEdgeStyle;rounded=0;orthogonalLoop=1;jettySize=auto;html=1;exitX=0.5;exitY=1;exitDx=0;exitDy=0;entryX=0.5;entryY=1;entryDx=0;entryDy=0;fillColor=#fad7ac;strokeColor=#b46504;" edge="1" parent="1" source="AQfkEVB8-soOwDxCn6y5-40" target="AQfkEVB8-soOwDxCn6y5-8">
          <mxGeometry relative="1" as="geometry" />
        </mxCell>
        <mxCell id="AQfkEVB8-soOwDxCn6y5-353" value="" style="edgeStyle=orthogonalEdgeStyle;rounded=0;orthogonalLoop=1;jettySize=auto;html=1;" edge="1" parent="1" source="AQfkEVB8-soOwDxCn6y5-40" target="AQfkEVB8-soOwDxCn6y5-352">
          <mxGeometry relative="1" as="geometry" />
        </mxCell>
        <mxCell id="AQfkEVB8-soOwDxCn6y5-40" value="&amp;lt;var_def&amp;gt;" style="ellipse;whiteSpace=wrap;html=1;" vertex="1" parent="1">
          <mxGeometry x="1150" y="3170" width="80" height="80" as="geometry" />
        </mxCell>
        <mxCell id="AQfkEVB8-soOwDxCn6y5-44" value="&lt;font style=&quot;font-size: 12px;&quot;&gt;END&lt;/font&gt;&lt;div style=&quot;&quot;&gt;&lt;font style=&quot;font-size: 12px;&quot;&gt;_OF&lt;/font&gt;&lt;/div&gt;&lt;div style=&quot;&quot;&gt;&lt;font style=&quot;font-size: 12px;&quot;&gt;_FILE&lt;/font&gt;&lt;/div&gt;" style="ellipse;whiteSpace=wrap;html=1;verticalAlign=middle;fillColor=#b0e3e6;strokeColor=#0e8088;" vertex="1" parent="1">
          <mxGeometry x="760" y="350" width="80" height="80" as="geometry" />
        </mxCell>
        <mxCell id="AQfkEVB8-soOwDxCn6y5-46" value="CONST" style="ellipse;whiteSpace=wrap;html=1;fillColor=#b0e3e6;strokeColor=#0e8088;" vertex="1" parent="1">
          <mxGeometry x="200" y="480" width="80" height="80" as="geometry" />
        </mxCell>
        <mxCell id="AQfkEVB8-soOwDxCn6y5-48" value="IFJ" style="ellipse;whiteSpace=wrap;html=1;fillColor=#b0e3e6;strokeColor=#0e8088;" vertex="1" parent="1">
          <mxGeometry x="20" y="480" width="80" height="80" as="geometry" />
        </mxCell>
        <mxCell id="AQfkEVB8-soOwDxCn6y5-50" value="ASSIGN" style="ellipse;whiteSpace=wrap;html=1;fillColor=#b0e3e6;strokeColor=#0e8088;" vertex="1" parent="1">
          <mxGeometry x="-160" y="480" width="80" height="80" as="geometry" />
        </mxCell>
        <mxCell id="AQfkEVB8-soOwDxCn6y5-52" value="IMPORT" style="ellipse;whiteSpace=wrap;html=1;fillColor=#b0e3e6;strokeColor=#0e8088;" vertex="1" parent="1">
          <mxGeometry x="-340" y="480" width="80" height="80" as="geometry" />
        </mxCell>
        <mxCell id="AQfkEVB8-soOwDxCn6y5-53" value="&lt;p style=&quot;line-height: 1px; margin-bottom: 0cm; background: transparent; font-size: 12px;&quot;&gt;&lt;font style=&quot;font-size: 12px;&quot;&gt;OPENING&lt;/font&gt;&lt;/p&gt;&lt;p style=&quot;line-height: 1px; margin-bottom: 0cm; background: transparent; font-size: 12px;&quot;&gt;&lt;font style=&quot;font-size: 12px;&quot;&gt;_BRACKET&lt;/font&gt;&lt;/p&gt;" style="ellipse;whiteSpace=wrap;html=1;align=center;verticalAlign=middle;fontSize=12;fillColor=#b0e3e6;strokeColor=#0e8088;" vertex="1" parent="1">
          <mxGeometry x="-510" y="480" width="80" height="80" as="geometry" />
        </mxCell>
        <mxCell id="AQfkEVB8-soOwDxCn6y5-56" value="STRING&amp;nbsp;&lt;div&gt;(&quot;ifj24.zig&quot;&lt;span style=&quot;background-color: initial;&quot;&gt;)&lt;/span&gt;&lt;/div&gt;" style="ellipse;whiteSpace=wrap;html=1;fillColor=#b0e3e6;strokeColor=#0e8088;" vertex="1" parent="1">
          <mxGeometry x="-690" y="480" width="80" height="80" as="geometry" />
        </mxCell>
        <mxCell id="AQfkEVB8-soOwDxCn6y5-58" value="CLOSING&lt;div&gt;_BRACKET&lt;/div&gt;" style="ellipse;whiteSpace=wrap;html=1;fillColor=#b0e3e6;strokeColor=#0e8088;" vertex="1" parent="1">
          <mxGeometry x="-870" y="480" width="80" height="80" as="geometry" />
        </mxCell>
        <mxCell id="AQfkEVB8-soOwDxCn6y5-61" value="SEMICOLON" style="ellipse;whiteSpace=wrap;html=1;fillColor=#b0e3e6;strokeColor=#0e8088;" vertex="1" parent="1">
          <mxGeometry x="-1050" y="480" width="80" height="80" as="geometry" />
        </mxCell>
        <mxCell id="AQfkEVB8-soOwDxCn6y5-63" value="PUB" style="ellipse;whiteSpace=wrap;html=1;fillColor=#b0e3e6;strokeColor=#0e8088;" vertex="1" parent="1">
          <mxGeometry x="414" y="650" width="80" height="80" as="geometry" />
        </mxCell>
        <mxCell id="AQfkEVB8-soOwDxCn6y5-65" value="FN" style="ellipse;whiteSpace=wrap;html=1;fillColor=#b0e3e6;strokeColor=#0e8088;" vertex="1" parent="1">
          <mxGeometry x="414" y="820" width="80" height="80" as="geometry" />
        </mxCell>
        <mxCell id="AQfkEVB8-soOwDxCn6y5-67" value="OPENING&lt;div&gt;_BRACKET&lt;/div&gt;" style="ellipse;whiteSpace=wrap;html=1;fillColor=#b0e3e6;strokeColor=#0e8088;" vertex="1" parent="1">
          <mxGeometry x="414" y="1140" width="80" height="80" as="geometry" />
        </mxCell>
        <mxCell id="AQfkEVB8-soOwDxCn6y5-69" value="CLOSING&lt;div&gt;_BRACKET&lt;/div&gt;" style="ellipse;whiteSpace=wrap;html=1;direction=south;fillColor=#b0e3e6;strokeColor=#0e8088;" vertex="1" parent="1">
          <mxGeometry x="414" y="1460" width="80" height="80" as="geometry" />
        </mxCell>
        <mxCell id="AQfkEVB8-soOwDxCn6y5-75" style="edgeStyle=orthogonalEdgeStyle;rounded=0;orthogonalLoop=1;jettySize=auto;html=1;exitX=0;exitY=0.5;exitDx=0;exitDy=0;entryX=1;entryY=0.5;entryDx=0;entryDy=0;" edge="1" parent="1" source="AQfkEVB8-soOwDxCn6y5-71" target="AQfkEVB8-soOwDxCn6y5-76">
          <mxGeometry relative="1" as="geometry">
            <mxPoint x="310" y="1660.047619047619" as="targetPoint" />
          </mxGeometry>
        </mxCell>
        <mxCell id="AQfkEVB8-soOwDxCn6y5-78" style="edgeStyle=orthogonalEdgeStyle;rounded=0;orthogonalLoop=1;jettySize=auto;html=1;exitX=0;exitY=0.5;exitDx=0;exitDy=0;entryX=1;entryY=0.5;entryDx=0;entryDy=0;" edge="1" parent="1" source="AQfkEVB8-soOwDxCn6y5-71" target="AQfkEVB8-soOwDxCn6y5-77">
          <mxGeometry relative="1" as="geometry" />
        </mxCell>
        <mxCell id="AQfkEVB8-soOwDxCn6y5-71" value="&amp;lt;type&amp;gt;" style="ellipse;whiteSpace=wrap;html=1;" vertex="1" parent="1">
          <mxGeometry x="414" y="1620" width="80" height="80" as="geometry" />
        </mxCell>
        <mxCell id="AQfkEVB8-soOwDxCn6y5-73" value="VOID" style="ellipse;whiteSpace=wrap;html=1;fillColor=#b0e3e6;strokeColor=#0e8088;" vertex="1" parent="1">
          <mxGeometry x="414" y="1760" width="80" height="80" as="geometry" />
        </mxCell>
        <mxCell id="AQfkEVB8-soOwDxCn6y5-80" style="edgeStyle=orthogonalEdgeStyle;rounded=0;orthogonalLoop=1;jettySize=auto;html=1;exitX=0;exitY=0.5;exitDx=0;exitDy=0;entryX=1;entryY=0.5;entryDx=0;entryDy=0;" edge="1" parent="1" source="AQfkEVB8-soOwDxCn6y5-76" target="AQfkEVB8-soOwDxCn6y5-79">
          <mxGeometry relative="1" as="geometry" />
        </mxCell>
        <mxCell id="AQfkEVB8-soOwDxCn6y5-83" style="edgeStyle=orthogonalEdgeStyle;rounded=0;orthogonalLoop=1;jettySize=auto;html=1;exitX=0.5;exitY=0;exitDx=0;exitDy=0;entryX=0.5;entryY=1;entryDx=0;entryDy=0;" edge="1" parent="1" source="AQfkEVB8-soOwDxCn6y5-76" target="AQfkEVB8-soOwDxCn6y5-84">
          <mxGeometry relative="1" as="geometry">
            <mxPoint x="270.1034482758623" y="1560" as="targetPoint" />
          </mxGeometry>
        </mxCell>
        <mxCell id="AQfkEVB8-soOwDxCn6y5-85" style="edgeStyle=orthogonalEdgeStyle;rounded=0;orthogonalLoop=1;jettySize=auto;html=1;exitX=0.5;exitY=0;exitDx=0;exitDy=0;entryX=0.5;entryY=1;entryDx=0;entryDy=0;" edge="1" parent="1" source="AQfkEVB8-soOwDxCn6y5-76" target="AQfkEVB8-soOwDxCn6y5-87">
          <mxGeometry relative="1" as="geometry">
            <mxPoint x="150" y="1540" as="targetPoint" />
          </mxGeometry>
        </mxCell>
        <mxCell id="AQfkEVB8-soOwDxCn6y5-76" value="&amp;lt;nullable&amp;gt;" style="ellipse;whiteSpace=wrap;html=1;" vertex="1" parent="1">
          <mxGeometry x="230" y="1620" width="80" height="80" as="geometry" />
        </mxCell>
        <mxCell id="AQfkEVB8-soOwDxCn6y5-102" style="edgeStyle=orthogonalEdgeStyle;rounded=0;orthogonalLoop=1;jettySize=auto;html=1;exitX=0;exitY=0.5;exitDx=0;exitDy=0;entryX=1;entryY=0.5;entryDx=0;entryDy=0;" edge="1" parent="1" source="AQfkEVB8-soOwDxCn6y5-77" target="AQfkEVB8-soOwDxCn6y5-90">
          <mxGeometry relative="1" as="geometry" />
        </mxCell>
        <mxCell id="AQfkEVB8-soOwDxCn6y5-77" value="&lt;font style=&quot;font-size: 10px;&quot;&gt;&amp;lt;type_keyword&amp;gt;&lt;/font&gt;" style="ellipse;whiteSpace=wrap;html=1;" vertex="1" parent="1">
          <mxGeometry x="230" y="1760" width="80" height="80" as="geometry" />
        </mxCell>
        <mxCell id="AQfkEVB8-soOwDxCn6y5-98" style="edgeStyle=orthogonalEdgeStyle;rounded=0;orthogonalLoop=1;jettySize=auto;html=1;exitX=0;exitY=0.5;exitDx=0;exitDy=0;entryX=1;entryY=0.5;entryDx=0;entryDy=0;" edge="1" parent="1" source="AQfkEVB8-soOwDxCn6y5-79" target="AQfkEVB8-soOwDxCn6y5-88">
          <mxGeometry relative="1" as="geometry" />
        </mxCell>
        <mxCell id="AQfkEVB8-soOwDxCn6y5-100" style="edgeStyle=orthogonalEdgeStyle;rounded=0;orthogonalLoop=1;jettySize=auto;html=1;exitX=0;exitY=0.5;exitDx=0;exitDy=0;entryX=1;entryY=0.5;entryDx=0;entryDy=0;" edge="1" parent="1" source="AQfkEVB8-soOwDxCn6y5-79" target="AQfkEVB8-soOwDxCn6y5-91">
          <mxGeometry relative="1" as="geometry">
            <mxPoint x="50" y="1930" as="targetPoint" />
          </mxGeometry>
        </mxCell>
        <mxCell id="AQfkEVB8-soOwDxCn6y5-79" value="&lt;font style=&quot;font-size: 10px;&quot;&gt;&amp;lt;type_keyword&amp;gt;&lt;/font&gt;" style="ellipse;whiteSpace=wrap;html=1;" vertex="1" parent="1">
          <mxGeometry x="60" y="1620" width="80" height="80" as="geometry" />
        </mxCell>
        <mxCell id="AQfkEVB8-soOwDxCn6y5-84" value="NULLABLE" style="ellipse;whiteSpace=wrap;html=1;fillColor=#b0e3e6;strokeColor=#0e8088;" vertex="1" parent="1">
          <mxGeometry x="230" y="1460" width="80" height="80" as="geometry" />
        </mxCell>
        <mxCell id="AQfkEVB8-soOwDxCn6y5-87" value="&lt;font style=&quot;font-size: 30px;&quot;&gt;ε&lt;/font&gt;" style="ellipse;whiteSpace=wrap;html=1;fillColor=#ffe6cc;strokeColor=#d79b00;" vertex="1" parent="1">
          <mxGeometry x="110" y="1460" width="80" height="80" as="geometry" />
        </mxCell>
        <mxCell id="AQfkEVB8-soOwDxCn6y5-88" value="F64" style="ellipse;whiteSpace=wrap;html=1;aspect=fixed;fillColor=#b0e3e6;strokeColor=#0e8088;" vertex="1" parent="1">
          <mxGeometry x="-140" y="1620" width="80" height="80" as="geometry" />
        </mxCell>
        <mxCell id="AQfkEVB8-soOwDxCn6y5-90" value="I32" style="ellipse;whiteSpace=wrap;html=1;fillColor=#b0e3e6;strokeColor=#0e8088;" vertex="1" parent="1">
          <mxGeometry x="-140" y="1760" width="80" height="80" as="geometry" />
        </mxCell>
        <mxCell id="AQfkEVB8-soOwDxCn6y5-95" style="edgeStyle=orthogonalEdgeStyle;rounded=0;orthogonalLoop=1;jettySize=auto;html=1;exitX=0;exitY=0.5;exitDx=0;exitDy=0;entryX=1;entryY=0.5;entryDx=0;entryDy=0;" edge="1" parent="1" source="AQfkEVB8-soOwDxCn6y5-91" target="AQfkEVB8-soOwDxCn6y5-93">
          <mxGeometry relative="1" as="geometry" />
        </mxCell>
        <mxCell id="AQfkEVB8-soOwDxCn6y5-103" style="edgeStyle=orthogonalEdgeStyle;rounded=0;orthogonalLoop=1;jettySize=auto;html=1;exitX=0.5;exitY=1;exitDx=0;exitDy=0;entryX=0.5;entryY=0;entryDx=0;entryDy=0;" edge="1" parent="1" source="AQfkEVB8-soOwDxCn6y5-91" target="AQfkEVB8-soOwDxCn6y5-105">
          <mxGeometry relative="1" as="geometry">
            <mxPoint x="-100.24137931034466" y="2040" as="targetPoint" />
          </mxGeometry>
        </mxCell>
        <mxCell id="AQfkEVB8-soOwDxCn6y5-91" value="&amp;lt;op_sq_bracket&amp;gt;" style="ellipse;whiteSpace=wrap;html=1;fontSize=10;" vertex="1" parent="1">
          <mxGeometry x="-140" y="1900" width="80" height="80" as="geometry" />
        </mxCell>
        <mxCell id="AQfkEVB8-soOwDxCn6y5-96" style="edgeStyle=orthogonalEdgeStyle;rounded=0;orthogonalLoop=1;jettySize=auto;html=1;exitX=0;exitY=0.5;exitDx=0;exitDy=0;entryX=1;entryY=0.5;entryDx=0;entryDy=0;" edge="1" parent="1" source="AQfkEVB8-soOwDxCn6y5-93" target="AQfkEVB8-soOwDxCn6y5-94">
          <mxGeometry relative="1" as="geometry" />
        </mxCell>
        <mxCell id="AQfkEVB8-soOwDxCn6y5-104" style="edgeStyle=orthogonalEdgeStyle;rounded=0;orthogonalLoop=1;jettySize=auto;html=1;exitX=0.5;exitY=1;exitDx=0;exitDy=0;entryX=0.5;entryY=0;entryDx=0;entryDy=0;entryPerimeter=0;" edge="1" parent="1" source="AQfkEVB8-soOwDxCn6y5-93" target="AQfkEVB8-soOwDxCn6y5-106">
          <mxGeometry relative="1" as="geometry">
            <mxPoint x="-260.24137931034466" y="2050" as="targetPoint" />
          </mxGeometry>
        </mxCell>
        <mxCell id="AQfkEVB8-soOwDxCn6y5-93" value="&lt;font size=&quot;1&quot;&gt;&amp;lt;cl_sq_bracket&amp;gt;&lt;/font&gt;" style="ellipse;whiteSpace=wrap;html=1;" vertex="1" parent="1">
          <mxGeometry x="-300" y="1900" width="80" height="80" as="geometry" />
        </mxCell>
        <mxCell id="AQfkEVB8-soOwDxCn6y5-94" value="U8" style="ellipse;whiteSpace=wrap;html=1;fillColor=#b0e3e6;strokeColor=#0e8088;" vertex="1" parent="1">
          <mxGeometry x="-460" y="1900" width="80" height="80" as="geometry" />
        </mxCell>
        <mxCell id="AQfkEVB8-soOwDxCn6y5-99" style="edgeStyle=orthogonalEdgeStyle;rounded=0;orthogonalLoop=1;jettySize=auto;html=1;exitX=0;exitY=0.5;exitDx=0;exitDy=0;entryX=1;entryY=0.5;entryDx=0;entryDy=0;" edge="1" parent="1" source="AQfkEVB8-soOwDxCn6y5-79" target="AQfkEVB8-soOwDxCn6y5-90">
          <mxGeometry relative="1" as="geometry" />
        </mxCell>
        <mxCell id="AQfkEVB8-soOwDxCn6y5-105" value="OPENING&lt;div&gt;_SQUARE&lt;/div&gt;&lt;div&gt;_BRACKET&lt;/div&gt;" style="ellipse;whiteSpace=wrap;html=1;fillColor=#b0e3e6;strokeColor=#0e8088;" vertex="1" parent="1">
          <mxGeometry x="-140" y="2050" width="80" height="80" as="geometry" />
        </mxCell>
        <mxCell id="AQfkEVB8-soOwDxCn6y5-106" value="CLOSING&lt;div&gt;_SQUARE&lt;/div&gt;&lt;div&gt;_BRACKET&lt;/div&gt;" style="ellipse;whiteSpace=wrap;html=1;fillColor=#b0e3e6;strokeColor=#0e8088;" vertex="1" parent="1">
          <mxGeometry x="-300" y="2050" width="80" height="80" as="geometry" />
        </mxCell>
        <mxCell id="AQfkEVB8-soOwDxCn6y5-109" value="COLON" style="ellipse;whiteSpace=wrap;html=1;fillColor=#b0e3e6;strokeColor=#0e8088;" vertex="1" parent="1">
          <mxGeometry x="240" y="1160" width="80" height="80" as="geometry" />
        </mxCell>
        <mxCell id="AQfkEVB8-soOwDxCn6y5-111" value="COMMA" style="ellipse;whiteSpace=wrap;html=1;fillColor=#b0e3e6;strokeColor=#0e8088;" vertex="1" parent="1">
          <mxGeometry x="-240" y="1300" width="80" height="80" as="geometry" />
        </mxCell>
        <mxCell id="AQfkEVB8-soOwDxCn6y5-113" value="ROVNAKE PRAVIDLO" style="text;html=1;align=center;verticalAlign=middle;resizable=0;points=[];autosize=1;strokeColor=#0e8088;fillColor=#b0e3e6;" vertex="1" parent="1">
          <mxGeometry x="195" y="1410" width="150" height="30" as="geometry" />
        </mxCell>
        <mxCell id="AQfkEVB8-soOwDxCn6y5-115" value="&lt;font style=&quot;font-size: 30px;&quot;&gt;ε&lt;/font&gt;" style="ellipse;whiteSpace=wrap;html=1;fillColor=#ffe6cc;strokeColor=#d79b00;" vertex="1" parent="1">
          <mxGeometry x="720" y="1300" width="80" height="80" as="geometry" />
        </mxCell>
        <mxCell id="AQfkEVB8-soOwDxCn6y5-118" style="edgeStyle=orthogonalEdgeStyle;rounded=0;orthogonalLoop=1;jettySize=auto;html=1;exitX=1;exitY=0.5;exitDx=0;exitDy=0;entryX=0;entryY=0.5;entryDx=0;entryDy=0;" edge="1" parent="1" source="AQfkEVB8-soOwDxCn6y5-117" target="AQfkEVB8-soOwDxCn6y5-120">
          <mxGeometry relative="1" as="geometry">
            <mxPoint x="1470" y="1040.3333333333335" as="targetPoint" />
          </mxGeometry>
        </mxCell>
        <mxCell id="AQfkEVB8-soOwDxCn6y5-128" style="edgeStyle=orthogonalEdgeStyle;rounded=0;orthogonalLoop=1;jettySize=auto;html=1;exitX=0.5;exitY=0;exitDx=0;exitDy=0;entryX=0.502;entryY=1;entryDx=0;entryDy=0;entryPerimeter=0;" edge="1" parent="1" source="AQfkEVB8-soOwDxCn6y5-117" target="AQfkEVB8-soOwDxCn6y5-129">
          <mxGeometry relative="1" as="geometry">
            <mxPoint x="1340.166666666667" y="930" as="targetPoint" />
          </mxGeometry>
        </mxCell>
        <mxCell id="AQfkEVB8-soOwDxCn6y5-117" value="&amp;lt;return&amp;gt;" style="ellipse;whiteSpace=wrap;html=1;" vertex="1" parent="1">
          <mxGeometry x="1300" y="1000" width="80" height="80" as="geometry" />
        </mxCell>
        <mxCell id="AQfkEVB8-soOwDxCn6y5-121" style="edgeStyle=orthogonalEdgeStyle;rounded=0;orthogonalLoop=1;jettySize=auto;html=1;exitX=1;exitY=0.5;exitDx=0;exitDy=0;entryX=0;entryY=0.5;entryDx=0;entryDy=0;" edge="1" parent="1" source="AQfkEVB8-soOwDxCn6y5-120" target="AQfkEVB8-soOwDxCn6y5-122">
          <mxGeometry relative="1" as="geometry">
            <mxPoint x="1630" y="1040.3333333333335" as="targetPoint" />
          </mxGeometry>
        </mxCell>
        <mxCell id="AQfkEVB8-soOwDxCn6y5-131" value="" style="edgeStyle=orthogonalEdgeStyle;rounded=0;orthogonalLoop=1;jettySize=auto;html=1;" edge="1" parent="1" source="AQfkEVB8-soOwDxCn6y5-120" target="AQfkEVB8-soOwDxCn6y5-130">
          <mxGeometry relative="1" as="geometry" />
        </mxCell>
        <mxCell id="AQfkEVB8-soOwDxCn6y5-133" style="edgeStyle=orthogonalEdgeStyle;rounded=0;orthogonalLoop=1;jettySize=auto;html=1;exitX=0.5;exitY=0;exitDx=0;exitDy=0;" edge="1" parent="1" source="AQfkEVB8-soOwDxCn6y5-120" target="AQfkEVB8-soOwDxCn6y5-132">
          <mxGeometry relative="1" as="geometry" />
        </mxCell>
        <mxCell id="AQfkEVB8-soOwDxCn6y5-120" value="&amp;lt;return_exp&amp;gt;" style="ellipse;whiteSpace=wrap;html=1;" vertex="1" parent="1">
          <mxGeometry x="1470" y="1000" width="80" height="80" as="geometry" />
        </mxCell>
        <mxCell id="AQfkEVB8-soOwDxCn6y5-124" style="edgeStyle=orthogonalEdgeStyle;rounded=0;orthogonalLoop=1;jettySize=auto;html=1;exitX=1;exitY=0.5;exitDx=0;exitDy=0;entryX=0;entryY=0.5;entryDx=0;entryDy=0;" edge="1" parent="1" source="AQfkEVB8-soOwDxCn6y5-122" target="AQfkEVB8-soOwDxCn6y5-125">
          <mxGeometry relative="1" as="geometry">
            <mxPoint x="1780" y="1040.3333333333335" as="targetPoint" />
          </mxGeometry>
        </mxCell>
        <mxCell id="AQfkEVB8-soOwDxCn6y5-122" value="&amp;lt;semicolon&amp;gt;" style="ellipse;whiteSpace=wrap;html=1;" vertex="1" parent="1">
          <mxGeometry x="1630" y="1000" width="80" height="80" as="geometry" />
        </mxCell>
        <mxCell id="AQfkEVB8-soOwDxCn6y5-125" value="SEMICOLON" style="ellipse;whiteSpace=wrap;html=1;fillColor=#b0e3e6;strokeColor=#0e8088;" vertex="1" parent="1">
          <mxGeometry x="1780" y="1000" width="80" height="80" as="geometry" />
        </mxCell>
        <mxCell id="AQfkEVB8-soOwDxCn6y5-129" value="RETURN" style="ellipse;whiteSpace=wrap;html=1;fillColor=#b0e3e6;strokeColor=#0e8088;" vertex="1" parent="1">
          <mxGeometry x="1300" y="860" width="80" height="80" as="geometry" />
        </mxCell>
        <mxCell id="AQfkEVB8-soOwDxCn6y5-137" value="" style="edgeStyle=orthogonalEdgeStyle;rounded=0;orthogonalLoop=1;jettySize=auto;html=1;" edge="1" parent="1" source="AQfkEVB8-soOwDxCn6y5-130" target="AQfkEVB8-soOwDxCn6y5-136">
          <mxGeometry relative="1" as="geometry" />
        </mxCell>
        <mxCell id="AQfkEVB8-soOwDxCn6y5-130" value="&amp;lt;exp&amp;gt;" style="ellipse;whiteSpace=wrap;html=1;" vertex="1" parent="1">
          <mxGeometry x="1470" y="860" width="80" height="80" as="geometry" />
        </mxCell>
        <mxCell id="AQfkEVB8-soOwDxCn6y5-132" value="&lt;font style=&quot;font-size: 30px;&quot;&gt;ε&lt;/font&gt;" style="ellipse;whiteSpace=wrap;html=1;fillColor=#ffe6cc;strokeColor=#d79b00;" vertex="1" parent="1">
          <mxGeometry x="1600" y="860" width="80" height="80" as="geometry" />
        </mxCell>
        <mxCell id="AQfkEVB8-soOwDxCn6y5-136" value="&lt;p style=&quot;line-height: 100%; margin-bottom: 0cm; font-size: 14px;&quot;&gt;&lt;font style=&quot;font-size: 14px;&quot;&gt;//call precedence analyzer&lt;/font&gt;&lt;/p&gt;&lt;div&gt;&lt;br&gt;&lt;/div&gt;" style="whiteSpace=wrap;html=1;fontSize=14;fillColor=#b0e3e6;strokeColor=#0e8088;" vertex="1" parent="1">
          <mxGeometry x="1450" y="710" width="120" height="60" as="geometry" />
        </mxCell>
        <mxCell id="AQfkEVB8-soOwDxCn6y5-141" value="" style="edgeStyle=orthogonalEdgeStyle;rounded=0;orthogonalLoop=1;jettySize=auto;html=1;" edge="1" parent="1" source="AQfkEVB8-soOwDxCn6y5-138" target="AQfkEVB8-soOwDxCn6y5-140">
          <mxGeometry relative="1" as="geometry" />
        </mxCell>
        <mxCell id="AQfkEVB8-soOwDxCn6y5-147" value="" style="edgeStyle=orthogonalEdgeStyle;rounded=0;orthogonalLoop=1;jettySize=auto;html=1;" edge="1" parent="1" source="AQfkEVB8-soOwDxCn6y5-138" target="AQfkEVB8-soOwDxCn6y5-146">
          <mxGeometry relative="1" as="geometry" />
        </mxCell>
        <mxCell id="AQfkEVB8-soOwDxCn6y5-138" value="&amp;lt;while&amp;gt;" style="ellipse;whiteSpace=wrap;html=1;" vertex="1" parent="1">
          <mxGeometry x="1280" y="1169" width="80" height="80" as="geometry" />
        </mxCell>
        <mxCell id="AQfkEVB8-soOwDxCn6y5-143" value="" style="edgeStyle=orthogonalEdgeStyle;rounded=0;orthogonalLoop=1;jettySize=auto;html=1;" edge="1" parent="1" source="AQfkEVB8-soOwDxCn6y5-140" target="AQfkEVB8-soOwDxCn6y5-142">
          <mxGeometry relative="1" as="geometry" />
        </mxCell>
        <mxCell id="AQfkEVB8-soOwDxCn6y5-149" value="" style="edgeStyle=orthogonalEdgeStyle;rounded=0;orthogonalLoop=1;jettySize=auto;html=1;" edge="1" parent="1" source="AQfkEVB8-soOwDxCn6y5-140" target="AQfkEVB8-soOwDxCn6y5-148">
          <mxGeometry relative="1" as="geometry" />
        </mxCell>
        <mxCell id="AQfkEVB8-soOwDxCn6y5-140" value="&amp;lt;op_bracket&amp;gt;" style="ellipse;whiteSpace=wrap;html=1;" vertex="1" parent="1">
          <mxGeometry x="1440" y="1169" width="80" height="80" as="geometry" />
        </mxCell>
        <mxCell id="AQfkEVB8-soOwDxCn6y5-145" value="" style="edgeStyle=orthogonalEdgeStyle;rounded=0;orthogonalLoop=1;jettySize=auto;html=1;" edge="1" parent="1" source="AQfkEVB8-soOwDxCn6y5-142" target="AQfkEVB8-soOwDxCn6y5-144">
          <mxGeometry relative="1" as="geometry" />
        </mxCell>
        <mxCell id="AQfkEVB8-soOwDxCn6y5-151" value="" style="edgeStyle=orthogonalEdgeStyle;rounded=0;orthogonalLoop=1;jettySize=auto;html=1;" edge="1" parent="1" source="AQfkEVB8-soOwDxCn6y5-142" target="AQfkEVB8-soOwDxCn6y5-150">
          <mxGeometry relative="1" as="geometry" />
        </mxCell>
        <mxCell id="AQfkEVB8-soOwDxCn6y5-154" value="" style="edgeStyle=orthogonalEdgeStyle;rounded=0;orthogonalLoop=1;jettySize=auto;html=1;" edge="1" parent="1" source="AQfkEVB8-soOwDxCn6y5-142" target="AQfkEVB8-soOwDxCn6y5-150">
          <mxGeometry relative="1" as="geometry" />
        </mxCell>
        <mxCell id="AQfkEVB8-soOwDxCn6y5-142" value="&amp;lt;null_exp&amp;gt;" style="ellipse;whiteSpace=wrap;html=1;" vertex="1" parent="1">
          <mxGeometry x="1600" y="1169" width="80" height="80" as="geometry" />
        </mxCell>
        <mxCell id="AQfkEVB8-soOwDxCn6y5-187" value="" style="edgeStyle=orthogonalEdgeStyle;rounded=0;orthogonalLoop=1;jettySize=auto;html=1;" edge="1" parent="1" source="AQfkEVB8-soOwDxCn6y5-144" target="AQfkEVB8-soOwDxCn6y5-186">
          <mxGeometry relative="1" as="geometry" />
        </mxCell>
        <mxCell id="AQfkEVB8-soOwDxCn6y5-144" value="&amp;lt;if_while_body&amp;gt;" style="ellipse;whiteSpace=wrap;html=1;fontSize=10;" vertex="1" parent="1">
          <mxGeometry x="1760" y="1169" width="80" height="80" as="geometry" />
        </mxCell>
        <mxCell id="AQfkEVB8-soOwDxCn6y5-146" value="WHILE" style="ellipse;whiteSpace=wrap;html=1;fillColor=#b0e3e6;strokeColor=#0e8088;" vertex="1" parent="1">
          <mxGeometry x="1280" y="1280" width="80" height="80" as="geometry" />
        </mxCell>
        <mxCell id="AQfkEVB8-soOwDxCn6y5-148" value="OPENING&lt;div&gt;_BRACKET&lt;/div&gt;" style="ellipse;whiteSpace=wrap;html=1;fillColor=#b0e3e6;strokeColor=#0e8088;" vertex="1" parent="1">
          <mxGeometry x="1440" y="1280" width="80" height="80" as="geometry" />
        </mxCell>
        <mxCell id="AQfkEVB8-soOwDxCn6y5-156" value="" style="edgeStyle=orthogonalEdgeStyle;rounded=0;orthogonalLoop=1;jettySize=auto;html=1;entryX=0.5;entryY=0;entryDx=0;entryDy=0;" edge="1" parent="1" target="AQfkEVB8-soOwDxCn6y5-155">
          <mxGeometry relative="1" as="geometry">
            <mxPoint x="1640" y="1250" as="sourcePoint" />
            <Array as="points">
              <mxPoint x="1640" y="1270" />
              <mxPoint x="1800" y="1270" />
            </Array>
          </mxGeometry>
        </mxCell>
        <mxCell id="AQfkEVB8-soOwDxCn6y5-158" value="" style="edgeStyle=orthogonalEdgeStyle;rounded=0;orthogonalLoop=1;jettySize=auto;html=1;" edge="1" parent="1" source="AQfkEVB8-soOwDxCn6y5-150" target="AQfkEVB8-soOwDxCn6y5-157">
          <mxGeometry relative="1" as="geometry" />
        </mxCell>
        <mxCell id="AQfkEVB8-soOwDxCn6y5-165" value="" style="edgeStyle=orthogonalEdgeStyle;rounded=0;orthogonalLoop=1;jettySize=auto;html=1;" edge="1" parent="1" source="AQfkEVB8-soOwDxCn6y5-150" target="AQfkEVB8-soOwDxCn6y5-164">
          <mxGeometry relative="1" as="geometry" />
        </mxCell>
        <mxCell id="AQfkEVB8-soOwDxCn6y5-150" value="&amp;lt;exp&amp;gt;" style="ellipse;whiteSpace=wrap;html=1;" vertex="1" parent="1">
          <mxGeometry x="1600" y="1380" width="80" height="80" as="geometry" />
        </mxCell>
        <mxCell id="AQfkEVB8-soOwDxCn6y5-168" value="" style="edgeStyle=orthogonalEdgeStyle;rounded=0;orthogonalLoop=1;jettySize=auto;html=1;" edge="1" parent="1" source="AQfkEVB8-soOwDxCn6y5-155" target="AQfkEVB8-soOwDxCn6y5-167">
          <mxGeometry relative="1" as="geometry" />
        </mxCell>
        <mxCell id="AQfkEVB8-soOwDxCn6y5-176" value="" style="edgeStyle=orthogonalEdgeStyle;rounded=0;orthogonalLoop=1;jettySize=auto;html=1;" edge="1" parent="1" source="AQfkEVB8-soOwDxCn6y5-155" target="AQfkEVB8-soOwDxCn6y5-175">
          <mxGeometry relative="1" as="geometry" />
        </mxCell>
        <mxCell id="AQfkEVB8-soOwDxCn6y5-155" value="&amp;lt;id&amp;gt;" style="ellipse;whiteSpace=wrap;html=1;" vertex="1" parent="1">
          <mxGeometry x="1760" y="1385" width="80" height="80" as="geometry" />
        </mxCell>
        <mxCell id="AQfkEVB8-soOwDxCn6y5-161" value="" style="edgeStyle=orthogonalEdgeStyle;rounded=0;orthogonalLoop=1;jettySize=auto;html=1;" edge="1" parent="1" source="AQfkEVB8-soOwDxCn6y5-157" target="AQfkEVB8-soOwDxCn6y5-160">
          <mxGeometry relative="1" as="geometry" />
        </mxCell>
        <mxCell id="AQfkEVB8-soOwDxCn6y5-157" value="&amp;lt;cl_bracket&amp;gt;" style="ellipse;whiteSpace=wrap;html=1;" vertex="1" parent="1">
          <mxGeometry x="1600" y="1490" width="80" height="80" as="geometry" />
        </mxCell>
        <mxCell id="AQfkEVB8-soOwDxCn6y5-160" value="CLOSING&lt;div&gt;_BRACKET&lt;/div&gt;" style="ellipse;whiteSpace=wrap;html=1;fillColor=#b0e3e6;strokeColor=#0e8088;" vertex="1" parent="1">
          <mxGeometry x="1440" y="1490" width="80" height="80" as="geometry" />
        </mxCell>
        <mxCell id="AQfkEVB8-soOwDxCn6y5-164" value="&lt;p style=&quot;line-height: 14px; margin-bottom: 0cm; font-size: 14px;&quot;&gt;//call precedence analyzer&lt;/p&gt;&lt;div&gt;&lt;br style=&quot;font-size: 14px;&quot;&gt;&lt;/div&gt;" style="whiteSpace=wrap;html=1;fillColor=#b0e3e6;strokeColor=#0e8088;" vertex="1" parent="1">
          <mxGeometry x="1420" y="1390" width="120" height="60" as="geometry" />
        </mxCell>
        <mxCell id="AQfkEVB8-soOwDxCn6y5-166" value="" style="rounded=1;whiteSpace=wrap;html=1;dashed=1;dashPattern=8 8;fillColor=none;strokeColor=#0022FF;" vertex="1" parent="1">
          <mxGeometry x="1590" y="1370" width="100" height="210" as="geometry" />
        </mxCell>
        <mxCell id="AQfkEVB8-soOwDxCn6y5-170" value="" style="edgeStyle=orthogonalEdgeStyle;rounded=0;orthogonalLoop=1;jettySize=auto;html=1;" edge="1" parent="1" source="AQfkEVB8-soOwDxCn6y5-167" target="AQfkEVB8-soOwDxCn6y5-169">
          <mxGeometry relative="1" as="geometry" />
        </mxCell>
        <mxCell id="AQfkEVB8-soOwDxCn6y5-178" value="" style="edgeStyle=orthogonalEdgeStyle;rounded=0;orthogonalLoop=1;jettySize=auto;html=1;" edge="1" parent="1" source="AQfkEVB8-soOwDxCn6y5-167" target="AQfkEVB8-soOwDxCn6y5-177">
          <mxGeometry relative="1" as="geometry" />
        </mxCell>
        <mxCell id="AQfkEVB8-soOwDxCn6y5-167" value="&amp;lt;cl_bracket&amp;gt;" style="ellipse;whiteSpace=wrap;html=1;" vertex="1" parent="1">
          <mxGeometry x="1890" y="1385" width="80" height="80" as="geometry" />
        </mxCell>
        <mxCell id="AQfkEVB8-soOwDxCn6y5-172" value="" style="edgeStyle=orthogonalEdgeStyle;rounded=0;orthogonalLoop=1;jettySize=auto;html=1;" edge="1" parent="1" source="AQfkEVB8-soOwDxCn6y5-169" target="AQfkEVB8-soOwDxCn6y5-171">
          <mxGeometry relative="1" as="geometry" />
        </mxCell>
        <mxCell id="AQfkEVB8-soOwDxCn6y5-180" value="" style="edgeStyle=orthogonalEdgeStyle;rounded=0;orthogonalLoop=1;jettySize=auto;html=1;" edge="1" parent="1" source="AQfkEVB8-soOwDxCn6y5-169" target="AQfkEVB8-soOwDxCn6y5-179">
          <mxGeometry relative="1" as="geometry" />
        </mxCell>
        <mxCell id="AQfkEVB8-soOwDxCn6y5-169" value="&amp;lt;vertical_bar&amp;gt;" style="ellipse;whiteSpace=wrap;html=1;" vertex="1" parent="1">
          <mxGeometry x="2020" y="1385" width="80" height="80" as="geometry" />
        </mxCell>
        <mxCell id="AQfkEVB8-soOwDxCn6y5-174" value="" style="edgeStyle=orthogonalEdgeStyle;rounded=0;orthogonalLoop=1;jettySize=auto;html=1;" edge="1" parent="1" source="AQfkEVB8-soOwDxCn6y5-171" target="AQfkEVB8-soOwDxCn6y5-173">
          <mxGeometry relative="1" as="geometry" />
        </mxCell>
        <mxCell id="AQfkEVB8-soOwDxCn6y5-182" value="" style="edgeStyle=orthogonalEdgeStyle;rounded=0;orthogonalLoop=1;jettySize=auto;html=1;" edge="1" parent="1" source="AQfkEVB8-soOwDxCn6y5-171" target="AQfkEVB8-soOwDxCn6y5-181">
          <mxGeometry relative="1" as="geometry" />
        </mxCell>
        <mxCell id="AQfkEVB8-soOwDxCn6y5-171" value="&amp;lt;id&amp;gt;" style="ellipse;whiteSpace=wrap;html=1;" vertex="1" parent="1">
          <mxGeometry x="2150" y="1385" width="80" height="80" as="geometry" />
        </mxCell>
        <mxCell id="AQfkEVB8-soOwDxCn6y5-184" value="" style="edgeStyle=orthogonalEdgeStyle;rounded=0;orthogonalLoop=1;jettySize=auto;html=1;" edge="1" parent="1" source="AQfkEVB8-soOwDxCn6y5-173" target="AQfkEVB8-soOwDxCn6y5-183">
          <mxGeometry relative="1" as="geometry" />
        </mxCell>
        <mxCell id="AQfkEVB8-soOwDxCn6y5-173" value="&amp;lt;vertical_bar&amp;gt;" style="ellipse;whiteSpace=wrap;html=1;" vertex="1" parent="1">
          <mxGeometry x="2280" y="1385" width="80" height="80" as="geometry" />
        </mxCell>
        <mxCell id="AQfkEVB8-soOwDxCn6y5-175" value="ID" style="ellipse;whiteSpace=wrap;html=1;fillColor=#b0e3e6;strokeColor=#0e8088;" vertex="1" parent="1">
          <mxGeometry x="1760" y="1490" width="80" height="80" as="geometry" />
        </mxCell>
        <mxCell id="AQfkEVB8-soOwDxCn6y5-177" value="CLOSING&lt;div&gt;_BRACKET&lt;/div&gt;" style="ellipse;whiteSpace=wrap;html=1;fillColor=#b0e3e6;strokeColor=#0e8088;" vertex="1" parent="1">
          <mxGeometry x="1890" y="1490" width="80" height="80" as="geometry" />
        </mxCell>
        <mxCell id="AQfkEVB8-soOwDxCn6y5-179" value="VERTICAL&lt;div&gt;_BAR&lt;/div&gt;" style="ellipse;whiteSpace=wrap;html=1;fillColor=#b0e3e6;strokeColor=#0e8088;" vertex="1" parent="1">
          <mxGeometry x="2020" y="1490" width="80" height="80" as="geometry" />
        </mxCell>
        <mxCell id="AQfkEVB8-soOwDxCn6y5-181" value="ID" style="ellipse;whiteSpace=wrap;html=1;fillColor=#b0e3e6;strokeColor=#0e8088;" vertex="1" parent="1">
          <mxGeometry x="2150" y="1490" width="80" height="80" as="geometry" />
        </mxCell>
        <mxCell id="AQfkEVB8-soOwDxCn6y5-183" value="VERTICAL&lt;div&gt;_BAR&lt;/div&gt;" style="ellipse;whiteSpace=wrap;html=1;fillColor=#b0e3e6;strokeColor=#0e8088;" vertex="1" parent="1">
          <mxGeometry x="2280" y="1490" width="80" height="80" as="geometry" />
        </mxCell>
        <mxCell id="AQfkEVB8-soOwDxCn6y5-189" value="" style="edgeStyle=orthogonalEdgeStyle;rounded=0;orthogonalLoop=1;jettySize=auto;html=1;" edge="1" parent="1" source="AQfkEVB8-soOwDxCn6y5-186" target="AQfkEVB8-soOwDxCn6y5-188">
          <mxGeometry relative="1" as="geometry" />
        </mxCell>
        <mxCell id="AQfkEVB8-soOwDxCn6y5-194" value="" style="edgeStyle=orthogonalEdgeStyle;rounded=0;orthogonalLoop=1;jettySize=auto;html=1;" edge="1" parent="1" source="AQfkEVB8-soOwDxCn6y5-186" target="AQfkEVB8-soOwDxCn6y5-193">
          <mxGeometry relative="1" as="geometry" />
        </mxCell>
        <mxCell id="AQfkEVB8-soOwDxCn6y5-186" value="&amp;lt;op_cr_bracket&amp;gt;" style="ellipse;whiteSpace=wrap;html=1;fontSize=10;" vertex="1" parent="1">
          <mxGeometry x="1920" y="1169" width="80" height="80" as="geometry" />
        </mxCell>
        <mxCell id="AQfkEVB8-soOwDxCn6y5-191" value="" style="edgeStyle=orthogonalEdgeStyle;rounded=0;orthogonalLoop=1;jettySize=auto;html=1;" edge="1" parent="1" source="AQfkEVB8-soOwDxCn6y5-188" target="AQfkEVB8-soOwDxCn6y5-190">
          <mxGeometry relative="1" as="geometry" />
        </mxCell>
        <mxCell id="AQfkEVB8-soOwDxCn6y5-197" style="edgeStyle=orthogonalEdgeStyle;rounded=0;orthogonalLoop=1;jettySize=auto;html=1;exitX=0.5;exitY=0;exitDx=0;exitDy=0;entryX=0.5;entryY=0;entryDx=0;entryDy=0;fillColor=#b0e3e6;strokeColor=#0e8088;" edge="1" parent="1" source="AQfkEVB8-soOwDxCn6y5-188" target="ASZtRQ1g8Chd7OLadqfl-30">
          <mxGeometry relative="1" as="geometry">
            <Array as="points">
              <mxPoint x="2120" y="390" />
              <mxPoint x="980" y="390" />
            </Array>
          </mxGeometry>
        </mxCell>
        <mxCell id="AQfkEVB8-soOwDxCn6y5-188" value="&amp;lt;fn_body&amp;gt;" style="ellipse;whiteSpace=wrap;html=1;fontSize=10;" vertex="1" parent="1">
          <mxGeometry x="2080" y="1169" width="80" height="80" as="geometry" />
        </mxCell>
        <mxCell id="AQfkEVB8-soOwDxCn6y5-196" value="" style="edgeStyle=orthogonalEdgeStyle;rounded=0;orthogonalLoop=1;jettySize=auto;html=1;" edge="1" parent="1" source="AQfkEVB8-soOwDxCn6y5-190" target="AQfkEVB8-soOwDxCn6y5-195">
          <mxGeometry relative="1" as="geometry" />
        </mxCell>
        <mxCell id="AQfkEVB8-soOwDxCn6y5-190" value="&amp;lt;cl_cr_brucket&amp;gt;" style="ellipse;whiteSpace=wrap;html=1;fontSize=10;" vertex="1" parent="1">
          <mxGeometry x="2240" y="1169" width="80" height="80" as="geometry" />
        </mxCell>
        <mxCell id="AQfkEVB8-soOwDxCn6y5-193" value="OPENING&lt;div&gt;_CURLY&lt;/div&gt;&lt;div&gt;_BRACKET&lt;/div&gt;" style="ellipse;whiteSpace=wrap;html=1;fontSize=10;fillColor=#b0e3e6;strokeColor=#0e8088;" vertex="1" parent="1">
          <mxGeometry x="1920" y="1280" width="80" height="80" as="geometry" />
        </mxCell>
        <mxCell id="AQfkEVB8-soOwDxCn6y5-195" value="CLOSING&lt;div&gt;_CURLY&lt;/div&gt;&lt;div&gt;_BRACKET&lt;/div&gt;" style="ellipse;whiteSpace=wrap;html=1;fontSize=10;fillColor=#b0e3e6;strokeColor=#0e8088;" vertex="1" parent="1">
          <mxGeometry x="2240" y="1280" width="80" height="80" as="geometry" />
        </mxCell>
        <mxCell id="AQfkEVB8-soOwDxCn6y5-198" value="ROVNAKE PRAVIDLO" style="text;html=1;align=center;verticalAlign=middle;resizable=0;points=[];autosize=1;strokeColor=#0e8088;fillColor=#b0e3e6;" vertex="1" parent="1">
          <mxGeometry x="1810" y="375" width="150" height="30" as="geometry" />
        </mxCell>
        <mxCell id="AQfkEVB8-soOwDxCn6y5-203" value="" style="edgeStyle=orthogonalEdgeStyle;rounded=0;orthogonalLoop=1;jettySize=auto;html=1;" edge="1" parent="1" source="AQfkEVB8-soOwDxCn6y5-200" target="AQfkEVB8-soOwDxCn6y5-202">
          <mxGeometry relative="1" as="geometry" />
        </mxCell>
        <mxCell id="AQfkEVB8-soOwDxCn6y5-213" value="" style="edgeStyle=orthogonalEdgeStyle;rounded=0;orthogonalLoop=1;jettySize=auto;html=1;" edge="1" parent="1" source="AQfkEVB8-soOwDxCn6y5-200" target="AQfkEVB8-soOwDxCn6y5-212">
          <mxGeometry relative="1" as="geometry" />
        </mxCell>
        <mxCell id="AQfkEVB8-soOwDxCn6y5-200" value="&amp;lt;if&amp;gt;" style="ellipse;whiteSpace=wrap;html=1;" vertex="1" parent="1">
          <mxGeometry x="1320" y="1710" width="80" height="80" as="geometry" />
        </mxCell>
        <mxCell id="AQfkEVB8-soOwDxCn6y5-205" value="" style="edgeStyle=orthogonalEdgeStyle;rounded=0;orthogonalLoop=1;jettySize=auto;html=1;" edge="1" parent="1" source="AQfkEVB8-soOwDxCn6y5-202" target="AQfkEVB8-soOwDxCn6y5-204">
          <mxGeometry relative="1" as="geometry" />
        </mxCell>
        <mxCell id="AQfkEVB8-soOwDxCn6y5-215" style="edgeStyle=orthogonalEdgeStyle;rounded=0;orthogonalLoop=1;jettySize=auto;html=1;exitX=0.5;exitY=1;exitDx=0;exitDy=0;entryX=0.5;entryY=0;entryDx=0;entryDy=0;" edge="1" parent="1" source="AQfkEVB8-soOwDxCn6y5-202" target="AQfkEVB8-soOwDxCn6y5-214">
          <mxGeometry relative="1" as="geometry" />
        </mxCell>
        <mxCell id="AQfkEVB8-soOwDxCn6y5-202" value="&amp;lt;op_bracket&amp;gt;" style="ellipse;whiteSpace=wrap;html=1;" vertex="1" parent="1">
          <mxGeometry x="1480" y="1710" width="80" height="80" as="geometry" />
        </mxCell>
        <mxCell id="AQfkEVB8-soOwDxCn6y5-207" value="" style="edgeStyle=orthogonalEdgeStyle;rounded=0;orthogonalLoop=1;jettySize=auto;html=1;" edge="1" parent="1" source="AQfkEVB8-soOwDxCn6y5-204" target="AQfkEVB8-soOwDxCn6y5-206">
          <mxGeometry relative="1" as="geometry" />
        </mxCell>
        <mxCell id="AQfkEVB8-soOwDxCn6y5-216" style="edgeStyle=orthogonalEdgeStyle;rounded=0;orthogonalLoop=1;jettySize=auto;html=1;exitX=0.5;exitY=0;exitDx=0;exitDy=0;entryX=1;entryY=1;entryDx=0;entryDy=0;fillColor=#b0e3e6;strokeColor=#0e8088;" edge="1" parent="1" source="AQfkEVB8-soOwDxCn6y5-204" target="AQfkEVB8-soOwDxCn6y5-142">
          <mxGeometry relative="1" as="geometry">
            <Array as="points">
              <mxPoint x="1680" y="1680" />
              <mxPoint x="1720" y="1680" />
              <mxPoint x="1720" y="1237" />
            </Array>
          </mxGeometry>
        </mxCell>
        <mxCell id="AQfkEVB8-soOwDxCn6y5-204" value="&amp;lt;null_exp&amp;gt;" style="ellipse;whiteSpace=wrap;html=1;" vertex="1" parent="1">
          <mxGeometry x="1640" y="1710" width="80" height="80" as="geometry" />
        </mxCell>
        <mxCell id="AQfkEVB8-soOwDxCn6y5-209" value="" style="edgeStyle=orthogonalEdgeStyle;rounded=0;orthogonalLoop=1;jettySize=auto;html=1;" edge="1" parent="1" source="AQfkEVB8-soOwDxCn6y5-206" target="AQfkEVB8-soOwDxCn6y5-208">
          <mxGeometry relative="1" as="geometry" />
        </mxCell>
        <mxCell id="AQfkEVB8-soOwDxCn6y5-222" style="edgeStyle=orthogonalEdgeStyle;rounded=0;orthogonalLoop=1;jettySize=auto;html=1;exitX=0.5;exitY=0;exitDx=0;exitDy=0;entryX=0;entryY=1;entryDx=0;entryDy=0;fillColor=#b0e3e6;strokeColor=#0e8088;" edge="1" parent="1" source="AQfkEVB8-soOwDxCn6y5-206" target="AQfkEVB8-soOwDxCn6y5-144">
          <mxGeometry relative="1" as="geometry">
            <Array as="points">
              <mxPoint x="1840" y="1680" />
              <mxPoint x="1740" y="1680" />
              <mxPoint x="1740" y="1237" />
            </Array>
          </mxGeometry>
        </mxCell>
        <mxCell id="AQfkEVB8-soOwDxCn6y5-206" value="&amp;lt;if_while_body&amp;gt;" style="ellipse;whiteSpace=wrap;html=1;fontSize=10;" vertex="1" parent="1">
          <mxGeometry x="1800" y="1710" width="80" height="80" as="geometry" />
        </mxCell>
        <mxCell id="AQfkEVB8-soOwDxCn6y5-211" value="" style="edgeStyle=orthogonalEdgeStyle;rounded=0;orthogonalLoop=1;jettySize=auto;html=1;" edge="1" parent="1" source="AQfkEVB8-soOwDxCn6y5-208" target="AQfkEVB8-soOwDxCn6y5-210">
          <mxGeometry relative="1" as="geometry" />
        </mxCell>
        <mxCell id="AQfkEVB8-soOwDxCn6y5-221" value="" style="edgeStyle=orthogonalEdgeStyle;rounded=0;orthogonalLoop=1;jettySize=auto;html=1;" edge="1" parent="1" source="AQfkEVB8-soOwDxCn6y5-208" target="AQfkEVB8-soOwDxCn6y5-220">
          <mxGeometry relative="1" as="geometry" />
        </mxCell>
        <mxCell id="AQfkEVB8-soOwDxCn6y5-208" value="&amp;lt;else&amp;gt;" style="ellipse;whiteSpace=wrap;html=1;" vertex="1" parent="1">
          <mxGeometry x="1960" y="1710" width="80" height="80" as="geometry" />
        </mxCell>
        <mxCell id="AQfkEVB8-soOwDxCn6y5-224" style="edgeStyle=orthogonalEdgeStyle;rounded=0;orthogonalLoop=1;jettySize=auto;html=1;exitX=0.5;exitY=0;exitDx=0;exitDy=0;entryX=0;entryY=1;entryDx=0;entryDy=0;fillColor=#b0e3e6;strokeColor=#0e8088;" edge="1" parent="1" source="AQfkEVB8-soOwDxCn6y5-210" target="AQfkEVB8-soOwDxCn6y5-144">
          <mxGeometry relative="1" as="geometry">
            <Array as="points">
              <mxPoint x="2160" y="1680" />
              <mxPoint x="1740" y="1680" />
              <mxPoint x="1740" y="1237" />
            </Array>
          </mxGeometry>
        </mxCell>
        <mxCell id="AQfkEVB8-soOwDxCn6y5-210" value="&lt;span style=&quot;color: rgb(0, 0, 0); font-family: Helvetica; font-size: 10px; font-style: normal; font-variant-ligatures: normal; font-variant-caps: normal; font-weight: 400; letter-spacing: normal; orphans: 2; text-align: center; text-indent: 0px; text-transform: none; widows: 2; word-spacing: 0px; -webkit-text-stroke-width: 0px; white-space: normal; background-color: rgb(251, 251, 251); text-decoration-thickness: initial; text-decoration-style: initial; text-decoration-color: initial; display: inline !important; float: none;&quot;&gt;&amp;lt;if_while_body&amp;gt;&lt;/span&gt;" style="ellipse;whiteSpace=wrap;html=1;" vertex="1" parent="1">
          <mxGeometry x="2120" y="1710" width="80" height="80" as="geometry" />
        </mxCell>
        <mxCell id="AQfkEVB8-soOwDxCn6y5-212" value="IF" style="ellipse;whiteSpace=wrap;html=1;fillColor=#b0e3e6;strokeColor=#0e8088;" vertex="1" parent="1">
          <mxGeometry x="1320" y="1840" width="80" height="80" as="geometry" />
        </mxCell>
        <mxCell id="AQfkEVB8-soOwDxCn6y5-214" value="OPENING&lt;div&gt;_BRACKET&lt;/div&gt;" style="ellipse;whiteSpace=wrap;html=1;fillColor=#b0e3e6;strokeColor=#0e8088;" vertex="1" parent="1">
          <mxGeometry x="1480" y="1840" width="80" height="80" as="geometry" />
        </mxCell>
        <mxCell id="AQfkEVB8-soOwDxCn6y5-219" value="ROVNAKE PRAVIDLO" style="text;html=1;align=center;verticalAlign=middle;resizable=0;points=[];autosize=1;strokeColor=#0e8088;fillColor=#b0e3e6;" vertex="1" parent="1">
          <mxGeometry x="1660" y="1630" width="150" height="30" as="geometry" />
        </mxCell>
        <mxCell id="AQfkEVB8-soOwDxCn6y5-220" value="ELSE" style="ellipse;whiteSpace=wrap;html=1;fillColor=#b0e3e6;strokeColor=#0e8088;" vertex="1" parent="1">
          <mxGeometry x="1960" y="1840" width="80" height="80" as="geometry" />
        </mxCell>
        <mxCell id="AQfkEVB8-soOwDxCn6y5-229" value="" style="edgeStyle=orthogonalEdgeStyle;rounded=0;orthogonalLoop=1;jettySize=auto;html=1;" edge="1" parent="1" source="AQfkEVB8-soOwDxCn6y5-226" target="AQfkEVB8-soOwDxCn6y5-228">
          <mxGeometry relative="1" as="geometry" />
        </mxCell>
        <mxCell id="AQfkEVB8-soOwDxCn6y5-241" value="" style="edgeStyle=orthogonalEdgeStyle;rounded=0;orthogonalLoop=1;jettySize=auto;html=1;" edge="1" parent="1" source="AQfkEVB8-soOwDxCn6y5-226" target="AQfkEVB8-soOwDxCn6y5-240">
          <mxGeometry relative="1" as="geometry" />
        </mxCell>
        <mxCell id="AQfkEVB8-soOwDxCn6y5-226" value="&amp;lt;ifj&amp;gt;" style="ellipse;whiteSpace=wrap;html=1;" vertex="1" parent="1">
          <mxGeometry x="1320" y="2020" width="80" height="80" as="geometry" />
        </mxCell>
        <mxCell id="AQfkEVB8-soOwDxCn6y5-231" value="" style="edgeStyle=orthogonalEdgeStyle;rounded=0;orthogonalLoop=1;jettySize=auto;html=1;" edge="1" parent="1" source="AQfkEVB8-soOwDxCn6y5-228" target="AQfkEVB8-soOwDxCn6y5-230">
          <mxGeometry relative="1" as="geometry" />
        </mxCell>
        <mxCell id="AQfkEVB8-soOwDxCn6y5-243" value="" style="edgeStyle=orthogonalEdgeStyle;rounded=0;orthogonalLoop=1;jettySize=auto;html=1;" edge="1" parent="1" source="AQfkEVB8-soOwDxCn6y5-228" target="AQfkEVB8-soOwDxCn6y5-242">
          <mxGeometry relative="1" as="geometry" />
        </mxCell>
        <mxCell id="AQfkEVB8-soOwDxCn6y5-228" value="&amp;lt;dot&amp;gt;" style="ellipse;whiteSpace=wrap;html=1;" vertex="1" parent="1">
          <mxGeometry x="1480" y="2020" width="80" height="80" as="geometry" />
        </mxCell>
        <mxCell id="AQfkEVB8-soOwDxCn6y5-233" value="" style="edgeStyle=orthogonalEdgeStyle;rounded=0;orthogonalLoop=1;jettySize=auto;html=1;" edge="1" parent="1" source="AQfkEVB8-soOwDxCn6y5-230" target="AQfkEVB8-soOwDxCn6y5-232">
          <mxGeometry relative="1" as="geometry" />
        </mxCell>
        <mxCell id="AQfkEVB8-soOwDxCn6y5-245" value="" style="edgeStyle=orthogonalEdgeStyle;rounded=0;orthogonalLoop=1;jettySize=auto;html=1;" edge="1" parent="1" source="AQfkEVB8-soOwDxCn6y5-230" target="AQfkEVB8-soOwDxCn6y5-244">
          <mxGeometry relative="1" as="geometry" />
        </mxCell>
        <mxCell id="AQfkEVB8-soOwDxCn6y5-230" value="&amp;lt;id&amp;gt;" style="ellipse;whiteSpace=wrap;html=1;" vertex="1" parent="1">
          <mxGeometry x="1640" y="2020" width="80" height="80" as="geometry" />
        </mxCell>
        <mxCell id="AQfkEVB8-soOwDxCn6y5-235" value="" style="edgeStyle=orthogonalEdgeStyle;rounded=0;orthogonalLoop=1;jettySize=auto;html=1;" edge="1" parent="1" source="AQfkEVB8-soOwDxCn6y5-232" target="AQfkEVB8-soOwDxCn6y5-234">
          <mxGeometry relative="1" as="geometry" />
        </mxCell>
        <mxCell id="AQfkEVB8-soOwDxCn6y5-247" value="" style="edgeStyle=orthogonalEdgeStyle;rounded=0;orthogonalLoop=1;jettySize=auto;html=1;" edge="1" parent="1" source="AQfkEVB8-soOwDxCn6y5-232" target="AQfkEVB8-soOwDxCn6y5-246">
          <mxGeometry relative="1" as="geometry" />
        </mxCell>
        <mxCell id="AQfkEVB8-soOwDxCn6y5-232" value="&amp;lt;op_bracket&amp;gt;" style="ellipse;whiteSpace=wrap;html=1;" vertex="1" parent="1">
          <mxGeometry x="1800" y="2020" width="80" height="80" as="geometry" />
        </mxCell>
        <mxCell id="AQfkEVB8-soOwDxCn6y5-237" value="" style="edgeStyle=orthogonalEdgeStyle;rounded=0;orthogonalLoop=1;jettySize=auto;html=1;" edge="1" parent="1" source="AQfkEVB8-soOwDxCn6y5-234" target="AQfkEVB8-soOwDxCn6y5-236">
          <mxGeometry relative="1" as="geometry" />
        </mxCell>
        <mxCell id="AQfkEVB8-soOwDxCn6y5-253" value="" style="edgeStyle=orthogonalEdgeStyle;rounded=0;orthogonalLoop=1;jettySize=auto;html=1;" edge="1" parent="1" source="AQfkEVB8-soOwDxCn6y5-234" target="AQfkEVB8-soOwDxCn6y5-252">
          <mxGeometry relative="1" as="geometry" />
        </mxCell>
        <mxCell id="AQfkEVB8-soOwDxCn6y5-234" value="&amp;lt;call_params&amp;gt;" style="ellipse;whiteSpace=wrap;html=1;" vertex="1" parent="1">
          <mxGeometry x="1960" y="2020" width="80" height="80" as="geometry" />
        </mxCell>
        <mxCell id="AQfkEVB8-soOwDxCn6y5-239" value="" style="edgeStyle=orthogonalEdgeStyle;rounded=0;orthogonalLoop=1;jettySize=auto;html=1;" edge="1" parent="1" source="AQfkEVB8-soOwDxCn6y5-236" target="AQfkEVB8-soOwDxCn6y5-238">
          <mxGeometry relative="1" as="geometry" />
        </mxCell>
        <mxCell id="AQfkEVB8-soOwDxCn6y5-249" value="" style="edgeStyle=orthogonalEdgeStyle;rounded=0;orthogonalLoop=1;jettySize=auto;html=1;" edge="1" parent="1" source="AQfkEVB8-soOwDxCn6y5-236" target="AQfkEVB8-soOwDxCn6y5-248">
          <mxGeometry relative="1" as="geometry" />
        </mxCell>
        <mxCell id="AQfkEVB8-soOwDxCn6y5-236" value="&amp;lt;cl_bracket&amp;gt;" style="ellipse;whiteSpace=wrap;html=1;" vertex="1" parent="1">
          <mxGeometry x="2120" y="2020" width="80" height="80" as="geometry" />
        </mxCell>
        <mxCell id="AQfkEVB8-soOwDxCn6y5-251" value="" style="edgeStyle=orthogonalEdgeStyle;rounded=0;orthogonalLoop=1;jettySize=auto;html=1;" edge="1" parent="1" source="AQfkEVB8-soOwDxCn6y5-238" target="AQfkEVB8-soOwDxCn6y5-250">
          <mxGeometry relative="1" as="geometry" />
        </mxCell>
        <mxCell id="AQfkEVB8-soOwDxCn6y5-238" value="&amp;lt;semicolon&amp;gt;" style="ellipse;whiteSpace=wrap;html=1;" vertex="1" parent="1">
          <mxGeometry x="2280" y="2020" width="80" height="80" as="geometry" />
        </mxCell>
        <mxCell id="AQfkEVB8-soOwDxCn6y5-240" value="IFJ" style="ellipse;whiteSpace=wrap;html=1;fillColor=#b0e3e6;strokeColor=#0e8088;" vertex="1" parent="1">
          <mxGeometry x="1320" y="2145" width="80" height="80" as="geometry" />
        </mxCell>
        <mxCell id="AQfkEVB8-soOwDxCn6y5-242" value="DOT" style="ellipse;whiteSpace=wrap;html=1;fillColor=#b0e3e6;strokeColor=#0e8088;" vertex="1" parent="1">
          <mxGeometry x="1480" y="2145" width="80" height="80" as="geometry" />
        </mxCell>
        <mxCell id="AQfkEVB8-soOwDxCn6y5-244" value="ID" style="ellipse;whiteSpace=wrap;html=1;fillColor=#b0e3e6;strokeColor=#0e8088;" vertex="1" parent="1">
          <mxGeometry x="1640" y="2145" width="80" height="80" as="geometry" />
        </mxCell>
        <mxCell id="AQfkEVB8-soOwDxCn6y5-246" value="OPENING&lt;div&gt;_BRACKET&lt;/div&gt;" style="ellipse;whiteSpace=wrap;html=1;fillColor=#b0e3e6;strokeColor=#0e8088;" vertex="1" parent="1">
          <mxGeometry x="1800" y="2145" width="80" height="80" as="geometry" />
        </mxCell>
        <mxCell id="AQfkEVB8-soOwDxCn6y5-248" value="CLOSING&lt;div&gt;_BRACKET&lt;/div&gt;" style="ellipse;whiteSpace=wrap;html=1;fillColor=#b0e3e6;strokeColor=#0e8088;" vertex="1" parent="1">
          <mxGeometry x="2120" y="2145" width="80" height="80" as="geometry" />
        </mxCell>
        <mxCell id="AQfkEVB8-soOwDxCn6y5-250" value="SEMICOLON" style="ellipse;whiteSpace=wrap;html=1;fillColor=#b0e3e6;strokeColor=#0e8088;" vertex="1" parent="1">
          <mxGeometry x="2280" y="2145" width="80" height="80" as="geometry" />
        </mxCell>
        <mxCell id="AQfkEVB8-soOwDxCn6y5-277" style="edgeStyle=orthogonalEdgeStyle;rounded=0;orthogonalLoop=1;jettySize=auto;html=1;exitX=1;exitY=0.5;exitDx=0;exitDy=0;entryX=0;entryY=0.5;entryDx=0;entryDy=0;" edge="1" parent="1" source="AQfkEVB8-soOwDxCn6y5-252" target="AQfkEVB8-soOwDxCn6y5-276">
          <mxGeometry relative="1" as="geometry" />
        </mxCell>
        <mxCell id="AQfkEVB8-soOwDxCn6y5-278" style="edgeStyle=orthogonalEdgeStyle;rounded=0;orthogonalLoop=1;jettySize=auto;html=1;exitX=1;exitY=0.5;exitDx=0;exitDy=0;entryX=0;entryY=0.5;entryDx=0;entryDy=0;" edge="1" parent="1" source="AQfkEVB8-soOwDxCn6y5-252" target="AQfkEVB8-soOwDxCn6y5-256">
          <mxGeometry relative="1" as="geometry" />
        </mxCell>
        <mxCell id="AQfkEVB8-soOwDxCn6y5-281" style="edgeStyle=orthogonalEdgeStyle;rounded=0;orthogonalLoop=1;jettySize=auto;html=1;exitX=1;exitY=0.5;exitDx=0;exitDy=0;entryX=0;entryY=0.5;entryDx=0;entryDy=0;" edge="1" parent="1" source="AQfkEVB8-soOwDxCn6y5-252" target="AQfkEVB8-soOwDxCn6y5-258">
          <mxGeometry relative="1" as="geometry" />
        </mxCell>
        <mxCell id="AQfkEVB8-soOwDxCn6y5-252" value="&lt;i style=&quot;forced-color-adjust: none; color: rgb(0, 0, 0); font-family: Helvetica; font-size: 12px; font-variant-ligatures: normal; font-variant-caps: normal; font-weight: 400; letter-spacing: normal; orphans: 2; text-align: center; text-indent: 0px; text-transform: none; widows: 2; word-spacing: 0px; -webkit-text-stroke-width: 0px; white-space: normal; text-decoration-thickness: initial; text-decoration-style: initial; text-decoration-color: initial;&quot;&gt;&lt;b style=&quot;forced-color-adjust: none;&quot;&gt;separator&lt;/b&gt;&lt;/i&gt;" style="ellipse;whiteSpace=wrap;html=1;fillColor=#d0cee2;strokeColor=#56517e;" vertex="1" parent="1">
          <mxGeometry x="1960" y="2340" width="80" height="80" as="geometry" />
        </mxCell>
        <mxCell id="AQfkEVB8-soOwDxCn6y5-261" value="" style="edgeStyle=orthogonalEdgeStyle;rounded=0;orthogonalLoop=1;jettySize=auto;html=1;" edge="1" parent="1" source="AQfkEVB8-soOwDxCn6y5-256" target="AQfkEVB8-soOwDxCn6y5-260">
          <mxGeometry relative="1" as="geometry" />
        </mxCell>
        <mxCell id="AQfkEVB8-soOwDxCn6y5-265" value="" style="edgeStyle=orthogonalEdgeStyle;rounded=0;orthogonalLoop=1;jettySize=auto;html=1;" edge="1" parent="1" source="AQfkEVB8-soOwDxCn6y5-256" target="AQfkEVB8-soOwDxCn6y5-264">
          <mxGeometry relative="1" as="geometry" />
        </mxCell>
        <mxCell id="AQfkEVB8-soOwDxCn6y5-256" value="&amp;lt;string&amp;gt;" style="ellipse;whiteSpace=wrap;html=1;" vertex="1" parent="1">
          <mxGeometry x="2120" y="2425" width="80" height="80" as="geometry" />
        </mxCell>
        <mxCell id="AQfkEVB8-soOwDxCn6y5-263" value="" style="edgeStyle=orthogonalEdgeStyle;rounded=0;orthogonalLoop=1;jettySize=auto;html=1;" edge="1" parent="1" source="AQfkEVB8-soOwDxCn6y5-257" target="AQfkEVB8-soOwDxCn6y5-262">
          <mxGeometry relative="1" as="geometry" />
        </mxCell>
        <mxCell id="AQfkEVB8-soOwDxCn6y5-267" value="" style="edgeStyle=orthogonalEdgeStyle;rounded=0;orthogonalLoop=1;jettySize=auto;html=1;" edge="1" parent="1" source="AQfkEVB8-soOwDxCn6y5-257" target="AQfkEVB8-soOwDxCn6y5-266">
          <mxGeometry relative="1" as="geometry" />
        </mxCell>
        <mxCell id="AQfkEVB8-soOwDxCn6y5-257" value="&amp;lt;int&amp;gt;" style="ellipse;whiteSpace=wrap;html=1;" vertex="1" parent="1">
          <mxGeometry x="2120" y="2700" width="80" height="80" as="geometry" />
        </mxCell>
        <mxCell id="AQfkEVB8-soOwDxCn6y5-269" value="" style="edgeStyle=orthogonalEdgeStyle;rounded=0;orthogonalLoop=1;jettySize=auto;html=1;" edge="1" parent="1" source="AQfkEVB8-soOwDxCn6y5-258" target="AQfkEVB8-soOwDxCn6y5-268">
          <mxGeometry relative="1" as="geometry" />
        </mxCell>
        <mxCell id="AQfkEVB8-soOwDxCn6y5-271" value="" style="edgeStyle=orthogonalEdgeStyle;rounded=0;orthogonalLoop=1;jettySize=auto;html=1;" edge="1" parent="1" source="AQfkEVB8-soOwDxCn6y5-258" target="AQfkEVB8-soOwDxCn6y5-270">
          <mxGeometry relative="1" as="geometry" />
        </mxCell>
        <mxCell id="AQfkEVB8-soOwDxCn6y5-258" value="&amp;lt;float&amp;gt;" style="ellipse;whiteSpace=wrap;html=1;" vertex="1" parent="1">
          <mxGeometry x="2120" y="2970" width="80" height="80" as="geometry" />
        </mxCell>
        <mxCell id="AQfkEVB8-soOwDxCn6y5-273" value="" style="edgeStyle=orthogonalEdgeStyle;rounded=0;orthogonalLoop=1;jettySize=auto;html=1;" edge="1" parent="1" source="AQfkEVB8-soOwDxCn6y5-259" target="AQfkEVB8-soOwDxCn6y5-272">
          <mxGeometry relative="1" as="geometry" />
        </mxCell>
        <mxCell id="AQfkEVB8-soOwDxCn6y5-275" value="" style="edgeStyle=orthogonalEdgeStyle;rounded=0;orthogonalLoop=1;jettySize=auto;html=1;" edge="1" parent="1" source="AQfkEVB8-soOwDxCn6y5-259" target="AQfkEVB8-soOwDxCn6y5-274">
          <mxGeometry relative="1" as="geometry" />
        </mxCell>
        <mxCell id="AQfkEVB8-soOwDxCn6y5-259" value="&amp;lt;null&amp;gt;" style="ellipse;whiteSpace=wrap;html=1;" vertex="1" parent="1">
          <mxGeometry x="2120" y="3230" width="80" height="80" as="geometry" />
        </mxCell>
        <mxCell id="AQfkEVB8-soOwDxCn6y5-284" value="" style="edgeStyle=orthogonalEdgeStyle;rounded=0;orthogonalLoop=1;jettySize=auto;html=1;" edge="1" parent="1" source="AQfkEVB8-soOwDxCn6y5-260" target="AQfkEVB8-soOwDxCn6y5-283">
          <mxGeometry relative="1" as="geometry" />
        </mxCell>
        <mxCell id="AQfkEVB8-soOwDxCn6y5-291" style="edgeStyle=orthogonalEdgeStyle;rounded=0;orthogonalLoop=1;jettySize=auto;html=1;entryX=0.5;entryY=1;entryDx=0;entryDy=0;fillColor=#fad7ac;strokeColor=#b46504;" edge="1" parent="1" source="AQfkEVB8-soOwDxCn6y5-260" target="AQfkEVB8-soOwDxCn6y5-252">
          <mxGeometry relative="1" as="geometry">
            <Array as="points">
              <mxPoint x="2320" y="2400" />
              <mxPoint x="2060" y="2400" />
              <mxPoint x="2060" y="2460" />
              <mxPoint x="2000" y="2460" />
            </Array>
          </mxGeometry>
        </mxCell>
        <mxCell id="AQfkEVB8-soOwDxCn6y5-260" value="&amp;lt;comma&amp;gt;" style="ellipse;whiteSpace=wrap;html=1;" vertex="1" parent="1">
          <mxGeometry x="2280" y="2425" width="80" height="80" as="geometry" />
        </mxCell>
        <mxCell id="AQfkEVB8-soOwDxCn6y5-292" style="edgeStyle=orthogonalEdgeStyle;rounded=0;orthogonalLoop=1;jettySize=auto;html=1;entryX=0.5;entryY=1;entryDx=0;entryDy=0;fillColor=#fad7ac;strokeColor=#b46504;" edge="1" parent="1" source="AQfkEVB8-soOwDxCn6y5-262" target="AQfkEVB8-soOwDxCn6y5-252">
          <mxGeometry relative="1" as="geometry">
            <mxPoint x="1960" y="2460" as="targetPoint" />
            <Array as="points">
              <mxPoint x="2320" y="2670" />
              <mxPoint x="2000" y="2670" />
            </Array>
          </mxGeometry>
        </mxCell>
        <mxCell id="AQfkEVB8-soOwDxCn6y5-262" value="&lt;span style=&quot;color: rgb(0, 0, 0); font-family: Helvetica; font-size: 12px; font-style: normal; font-variant-ligatures: normal; font-variant-caps: normal; font-weight: 400; letter-spacing: normal; orphans: 2; text-align: center; text-indent: 0px; text-transform: none; widows: 2; word-spacing: 0px; -webkit-text-stroke-width: 0px; white-space: normal; background-color: rgb(251, 251, 251); text-decoration-thickness: initial; text-decoration-style: initial; text-decoration-color: initial; display: inline !important; float: none;&quot;&gt;&amp;lt;comma&amp;gt;&lt;/span&gt;" style="ellipse;whiteSpace=wrap;html=1;" vertex="1" parent="1">
          <mxGeometry x="2280" y="2700" width="80" height="80" as="geometry" />
        </mxCell>
        <mxCell id="AQfkEVB8-soOwDxCn6y5-264" value="STRING" style="ellipse;whiteSpace=wrap;html=1;fillColor=#b0e3e6;strokeColor=#0e8088;" vertex="1" parent="1">
          <mxGeometry x="2120" y="2560" width="80" height="80" as="geometry" />
        </mxCell>
        <mxCell id="AQfkEVB8-soOwDxCn6y5-266" value="I32_VAR" style="ellipse;whiteSpace=wrap;html=1;fillColor=#b0e3e6;strokeColor=#0e8088;" vertex="1" parent="1">
          <mxGeometry x="2120" y="2830" width="80" height="80" as="geometry" />
        </mxCell>
        <mxCell id="AQfkEVB8-soOwDxCn6y5-293" style="edgeStyle=orthogonalEdgeStyle;rounded=0;orthogonalLoop=1;jettySize=auto;html=1;entryX=0.5;entryY=1;entryDx=0;entryDy=0;fillColor=#fad7ac;strokeColor=#b46504;" edge="1" parent="1" source="AQfkEVB8-soOwDxCn6y5-268" target="AQfkEVB8-soOwDxCn6y5-252">
          <mxGeometry relative="1" as="geometry">
            <Array as="points">
              <mxPoint x="2320" y="2940" />
              <mxPoint x="2000" y="2940" />
            </Array>
          </mxGeometry>
        </mxCell>
        <mxCell id="AQfkEVB8-soOwDxCn6y5-268" value="&lt;span style=&quot;color: rgb(0, 0, 0); font-family: Helvetica; font-size: 12px; font-style: normal; font-variant-ligatures: normal; font-variant-caps: normal; font-weight: 400; letter-spacing: normal; orphans: 2; text-align: center; text-indent: 0px; text-transform: none; widows: 2; word-spacing: 0px; -webkit-text-stroke-width: 0px; white-space: normal; background-color: rgb(251, 251, 251); text-decoration-thickness: initial; text-decoration-style: initial; text-decoration-color: initial; display: inline !important; float: none;&quot;&gt;&amp;lt;comma&amp;gt;&lt;/span&gt;" style="ellipse;whiteSpace=wrap;html=1;" vertex="1" parent="1">
          <mxGeometry x="2280" y="2970" width="80" height="80" as="geometry" />
        </mxCell>
        <mxCell id="AQfkEVB8-soOwDxCn6y5-270" value="F64_VAR" style="ellipse;whiteSpace=wrap;html=1;fillColor=#b0e3e6;strokeColor=#0e8088;" vertex="1" parent="1">
          <mxGeometry x="2120" y="3100" width="80" height="80" as="geometry" />
        </mxCell>
        <mxCell id="AQfkEVB8-soOwDxCn6y5-294" style="edgeStyle=orthogonalEdgeStyle;rounded=0;orthogonalLoop=1;jettySize=auto;html=1;entryX=0.5;entryY=1;entryDx=0;entryDy=0;fillColor=#fad7ac;strokeColor=#b46504;" edge="1" parent="1" source="AQfkEVB8-soOwDxCn6y5-272" target="AQfkEVB8-soOwDxCn6y5-252">
          <mxGeometry relative="1" as="geometry">
            <mxPoint x="1970" y="2437.037037037037" as="targetPoint" />
            <Array as="points">
              <mxPoint x="2320" y="3200" />
              <mxPoint x="2000" y="3200" />
            </Array>
          </mxGeometry>
        </mxCell>
        <mxCell id="AQfkEVB8-soOwDxCn6y5-272" value="&lt;span style=&quot;color: rgb(0, 0, 0); font-family: Helvetica; font-size: 12px; font-style: normal; font-variant-ligatures: normal; font-variant-caps: normal; font-weight: 400; letter-spacing: normal; orphans: 2; text-align: center; text-indent: 0px; text-transform: none; widows: 2; word-spacing: 0px; -webkit-text-stroke-width: 0px; white-space: normal; background-color: rgb(251, 251, 251); text-decoration-thickness: initial; text-decoration-style: initial; text-decoration-color: initial; display: inline !important; float: none;&quot;&gt;&amp;lt;comma&amp;gt;&lt;/span&gt;" style="ellipse;whiteSpace=wrap;html=1;" vertex="1" parent="1">
          <mxGeometry x="2280" y="3230" width="80" height="80" as="geometry" />
        </mxCell>
        <mxCell id="AQfkEVB8-soOwDxCn6y5-274" value="NULL_VALUE" style="ellipse;whiteSpace=wrap;html=1;fillColor=#b0e3e6;strokeColor=#0e8088;" vertex="1" parent="1">
          <mxGeometry x="2120" y="3370" width="80" height="80" as="geometry" />
        </mxCell>
        <mxCell id="AQfkEVB8-soOwDxCn6y5-276" value="&lt;font style=&quot;font-size: 30px;&quot;&gt;ε&lt;/font&gt;" style="ellipse;whiteSpace=wrap;html=1;fillColor=#ffe6cc;strokeColor=#d79b00;" vertex="1" parent="1">
          <mxGeometry x="2120" y="2280" width="80" height="80" as="geometry" />
        </mxCell>
        <mxCell id="AQfkEVB8-soOwDxCn6y5-280" style="edgeStyle=orthogonalEdgeStyle;rounded=0;orthogonalLoop=1;jettySize=auto;html=1;exitX=1;exitY=0.5;exitDx=0;exitDy=0;entryX=0;entryY=0.375;entryDx=0;entryDy=0;entryPerimeter=0;" edge="1" parent="1" source="AQfkEVB8-soOwDxCn6y5-252" target="AQfkEVB8-soOwDxCn6y5-257">
          <mxGeometry relative="1" as="geometry" />
        </mxCell>
        <mxCell id="AQfkEVB8-soOwDxCn6y5-282" style="edgeStyle=orthogonalEdgeStyle;rounded=0;orthogonalLoop=1;jettySize=auto;html=1;exitX=1;exitY=0.5;exitDx=0;exitDy=0;entryX=0;entryY=0.5;entryDx=0;entryDy=0;" edge="1" parent="1" source="AQfkEVB8-soOwDxCn6y5-252" target="AQfkEVB8-soOwDxCn6y5-259">
          <mxGeometry relative="1" as="geometry" />
        </mxCell>
        <mxCell id="AQfkEVB8-soOwDxCn6y5-283" value="COMMA" style="ellipse;whiteSpace=wrap;html=1;fillColor=#b0e3e6;strokeColor=#0e8088;" vertex="1" parent="1">
          <mxGeometry x="2280" y="2560" width="80" height="80" as="geometry" />
        </mxCell>
        <mxCell id="AQfkEVB8-soOwDxCn6y5-285" value="" style="edgeStyle=orthogonalEdgeStyle;rounded=0;orthogonalLoop=1;jettySize=auto;html=1;exitX=0.5;exitY=1;exitDx=0;exitDy=0;" edge="1" parent="1" target="AQfkEVB8-soOwDxCn6y5-286" source="AQfkEVB8-soOwDxCn6y5-262">
          <mxGeometry relative="1" as="geometry">
            <mxPoint x="2360" y="2810" as="sourcePoint" />
          </mxGeometry>
        </mxCell>
        <mxCell id="AQfkEVB8-soOwDxCn6y5-286" value="COMMA" style="ellipse;whiteSpace=wrap;html=1;fillColor=#b0e3e6;strokeColor=#0e8088;" vertex="1" parent="1">
          <mxGeometry x="2280" y="2830" width="80" height="80" as="geometry" />
        </mxCell>
        <mxCell id="AQfkEVB8-soOwDxCn6y5-287" value="" style="edgeStyle=orthogonalEdgeStyle;rounded=0;orthogonalLoop=1;jettySize=auto;html=1;exitX=0.5;exitY=1;exitDx=0;exitDy=0;" edge="1" parent="1" target="AQfkEVB8-soOwDxCn6y5-288" source="AQfkEVB8-soOwDxCn6y5-268">
          <mxGeometry relative="1" as="geometry">
            <mxPoint x="2340" y="3080" as="sourcePoint" />
          </mxGeometry>
        </mxCell>
        <mxCell id="AQfkEVB8-soOwDxCn6y5-288" value="COMMA" style="ellipse;whiteSpace=wrap;html=1;fillColor=#b0e3e6;strokeColor=#0e8088;" vertex="1" parent="1">
          <mxGeometry x="2280" y="3100" width="80" height="80" as="geometry" />
        </mxCell>
        <mxCell id="AQfkEVB8-soOwDxCn6y5-289" value="" style="edgeStyle=orthogonalEdgeStyle;rounded=0;orthogonalLoop=1;jettySize=auto;html=1;exitX=0.5;exitY=1;exitDx=0;exitDy=0;" edge="1" parent="1" target="AQfkEVB8-soOwDxCn6y5-290" source="AQfkEVB8-soOwDxCn6y5-272">
          <mxGeometry relative="1" as="geometry">
            <mxPoint x="2350" y="3330" as="sourcePoint" />
          </mxGeometry>
        </mxCell>
        <mxCell id="AQfkEVB8-soOwDxCn6y5-290" value="COMMA" style="ellipse;whiteSpace=wrap;html=1;fillColor=#b0e3e6;strokeColor=#0e8088;" vertex="1" parent="1">
          <mxGeometry x="2280" y="3370" width="80" height="80" as="geometry" />
        </mxCell>
        <mxCell id="AQfkEVB8-soOwDxCn6y5-297" value="" style="rounded=1;whiteSpace=wrap;html=1;dashed=1;dashPattern=8 8;fillColor=none;strokeColor=#0022FF;" vertex="1" parent="1">
          <mxGeometry x="2110" y="2690" width="260" height="100" as="geometry" />
        </mxCell>
        <mxCell id="AQfkEVB8-soOwDxCn6y5-298" value="" style="rounded=1;whiteSpace=wrap;html=1;dashed=1;dashPattern=8 8;fillColor=none;strokeColor=#0022FF;" vertex="1" parent="1">
          <mxGeometry x="2110" y="2960" width="260" height="100" as="geometry" />
        </mxCell>
        <mxCell id="AQfkEVB8-soOwDxCn6y5-299" value="" style="rounded=1;whiteSpace=wrap;html=1;dashed=1;dashPattern=8 8;fillColor=none;strokeColor=#0022FF;" vertex="1" parent="1">
          <mxGeometry x="2110" y="3220" width="260" height="100" as="geometry" />
        </mxCell>
        <mxCell id="AQfkEVB8-soOwDxCn6y5-303" value="" style="edgeStyle=orthogonalEdgeStyle;rounded=0;orthogonalLoop=1;jettySize=auto;html=1;" edge="1" parent="1" source="AQfkEVB8-soOwDxCn6y5-300" target="AQfkEVB8-soOwDxCn6y5-302">
          <mxGeometry relative="1" as="geometry" />
        </mxCell>
        <mxCell id="AQfkEVB8-soOwDxCn6y5-318" value="" style="edgeStyle=orthogonalEdgeStyle;rounded=0;orthogonalLoop=1;jettySize=auto;html=1;" edge="1" parent="1" source="AQfkEVB8-soOwDxCn6y5-300" target="AQfkEVB8-soOwDxCn6y5-317">
          <mxGeometry relative="1" as="geometry" />
        </mxCell>
        <mxCell id="AQfkEVB8-soOwDxCn6y5-300" value="&amp;lt;id&amp;gt;" style="ellipse;whiteSpace=wrap;html=1;" vertex="1" parent="1">
          <mxGeometry x="1290" y="2350" width="80" height="80" as="geometry" />
        </mxCell>
        <mxCell id="AQfkEVB8-soOwDxCn6y5-305" value="" style="edgeStyle=orthogonalEdgeStyle;rounded=0;orthogonalLoop=1;jettySize=auto;html=1;" edge="1" parent="1" source="AQfkEVB8-soOwDxCn6y5-302" target="AQfkEVB8-soOwDxCn6y5-304">
          <mxGeometry relative="1" as="geometry" />
        </mxCell>
        <mxCell id="AQfkEVB8-soOwDxCn6y5-316" value="" style="edgeStyle=orthogonalEdgeStyle;rounded=0;orthogonalLoop=1;jettySize=auto;html=1;" edge="1" parent="1" source="AQfkEVB8-soOwDxCn6y5-302" target="AQfkEVB8-soOwDxCn6y5-315">
          <mxGeometry relative="1" as="geometry" />
        </mxCell>
        <mxCell id="AQfkEVB8-soOwDxCn6y5-302" value="&amp;lt;op_bracket&amp;gt;" style="ellipse;whiteSpace=wrap;html=1;" vertex="1" parent="1">
          <mxGeometry x="1420" y="2350" width="80" height="80" as="geometry" />
        </mxCell>
        <mxCell id="AQfkEVB8-soOwDxCn6y5-307" value="" style="edgeStyle=orthogonalEdgeStyle;rounded=0;orthogonalLoop=1;jettySize=auto;html=1;" edge="1" parent="1" source="AQfkEVB8-soOwDxCn6y5-304" target="AQfkEVB8-soOwDxCn6y5-306">
          <mxGeometry relative="1" as="geometry" />
        </mxCell>
        <mxCell id="AQfkEVB8-soOwDxCn6y5-319" style="edgeStyle=orthogonalEdgeStyle;rounded=0;orthogonalLoop=1;jettySize=auto;html=1;exitX=0.5;exitY=0;exitDx=0;exitDy=0;" edge="1" parent="1" source="AQfkEVB8-soOwDxCn6y5-304" target="AQfkEVB8-soOwDxCn6y5-252">
          <mxGeometry relative="1" as="geometry">
            <mxPoint x="1630" y="2310" as="sourcePoint" />
            <Array as="points">
              <mxPoint x="1590" y="2310" />
              <mxPoint x="1920" y="2310" />
              <mxPoint x="1920" y="2380" />
            </Array>
          </mxGeometry>
        </mxCell>
        <mxCell id="AQfkEVB8-soOwDxCn6y5-304" value="&amp;lt;call_params&amp;gt;" style="ellipse;whiteSpace=wrap;html=1;" vertex="1" parent="1">
          <mxGeometry x="1550" y="2350" width="80" height="80" as="geometry" />
        </mxCell>
        <mxCell id="AQfkEVB8-soOwDxCn6y5-310" value="" style="edgeStyle=orthogonalEdgeStyle;rounded=0;orthogonalLoop=1;jettySize=auto;html=1;" edge="1" parent="1" source="AQfkEVB8-soOwDxCn6y5-306" target="AQfkEVB8-soOwDxCn6y5-309">
          <mxGeometry relative="1" as="geometry" />
        </mxCell>
        <mxCell id="AQfkEVB8-soOwDxCn6y5-314" value="" style="edgeStyle=orthogonalEdgeStyle;rounded=0;orthogonalLoop=1;jettySize=auto;html=1;" edge="1" parent="1" source="AQfkEVB8-soOwDxCn6y5-306" target="AQfkEVB8-soOwDxCn6y5-313">
          <mxGeometry relative="1" as="geometry" />
        </mxCell>
        <mxCell id="AQfkEVB8-soOwDxCn6y5-306" value="&amp;lt;cl_bracket&amp;gt;" style="ellipse;whiteSpace=wrap;html=1;" vertex="1" parent="1">
          <mxGeometry x="1680" y="2350" width="80" height="80" as="geometry" />
        </mxCell>
        <mxCell id="AQfkEVB8-soOwDxCn6y5-312" value="" style="edgeStyle=orthogonalEdgeStyle;rounded=0;orthogonalLoop=1;jettySize=auto;html=1;" edge="1" parent="1" source="AQfkEVB8-soOwDxCn6y5-309" target="AQfkEVB8-soOwDxCn6y5-311">
          <mxGeometry relative="1" as="geometry" />
        </mxCell>
        <mxCell id="AQfkEVB8-soOwDxCn6y5-309" value="&amp;lt;semicolon&amp;gt;" style="ellipse;whiteSpace=wrap;html=1;" vertex="1" parent="1">
          <mxGeometry x="1800" y="2350" width="80" height="80" as="geometry" />
        </mxCell>
        <mxCell id="AQfkEVB8-soOwDxCn6y5-311" value="SEMICOLON" style="ellipse;whiteSpace=wrap;html=1;fillColor=#b0e3e6;strokeColor=#0e8088;" vertex="1" parent="1">
          <mxGeometry x="1800" y="2470" width="80" height="80" as="geometry" />
        </mxCell>
        <mxCell id="AQfkEVB8-soOwDxCn6y5-313" value="CLOSING&lt;div&gt;_BRACKET&lt;/div&gt;" style="ellipse;whiteSpace=wrap;html=1;fillColor=#b0e3e6;strokeColor=#0e8088;" vertex="1" parent="1">
          <mxGeometry x="1680" y="2470" width="80" height="80" as="geometry" />
        </mxCell>
        <mxCell id="AQfkEVB8-soOwDxCn6y5-315" value="OPENING&lt;div&gt;_BRACKET&lt;/div&gt;" style="ellipse;whiteSpace=wrap;html=1;fillColor=#b0e3e6;strokeColor=#0e8088;" vertex="1" parent="1">
          <mxGeometry x="1420" y="2470" width="80" height="80" as="geometry" />
        </mxCell>
        <mxCell id="AQfkEVB8-soOwDxCn6y5-317" value="ID" style="ellipse;whiteSpace=wrap;html=1;fillColor=#b0e3e6;strokeColor=#0e8088;" vertex="1" parent="1">
          <mxGeometry x="1290" y="2470" width="80" height="80" as="geometry" />
        </mxCell>
        <mxCell id="AQfkEVB8-soOwDxCn6y5-320" value="" style="rounded=1;whiteSpace=wrap;html=1;dashed=1;dashPattern=8 8;fillColor=none;strokeColor=#0022FF;" vertex="1" parent="1">
          <mxGeometry x="1280" y="2340" width="610" height="100" as="geometry" />
        </mxCell>
        <mxCell id="AQfkEVB8-soOwDxCn6y5-324" value="" style="edgeStyle=orthogonalEdgeStyle;rounded=0;orthogonalLoop=1;jettySize=auto;html=1;" edge="1" parent="1" source="AQfkEVB8-soOwDxCn6y5-321" target="AQfkEVB8-soOwDxCn6y5-323">
          <mxGeometry relative="1" as="geometry" />
        </mxCell>
        <mxCell id="AQfkEVB8-soOwDxCn6y5-330" value="" style="edgeStyle=orthogonalEdgeStyle;rounded=0;orthogonalLoop=1;jettySize=auto;html=1;" edge="1" parent="1" source="AQfkEVB8-soOwDxCn6y5-321" target="AQfkEVB8-soOwDxCn6y5-329">
          <mxGeometry relative="1" as="geometry" />
        </mxCell>
        <mxCell id="AQfkEVB8-soOwDxCn6y5-333" style="edgeStyle=orthogonalEdgeStyle;rounded=0;orthogonalLoop=1;jettySize=auto;html=1;exitX=0.5;exitY=1;exitDx=0;exitDy=0;" edge="1" parent="1" source="AQfkEVB8-soOwDxCn6y5-321" target="AQfkEVB8-soOwDxCn6y5-332">
          <mxGeometry relative="1" as="geometry" />
        </mxCell>
        <mxCell id="AQfkEVB8-soOwDxCn6y5-321" value="&amp;lt;id_assign&amp;gt;" style="ellipse;whiteSpace=wrap;html=1;" vertex="1" parent="1">
          <mxGeometry x="1310" y="2720" width="80" height="80" as="geometry" />
        </mxCell>
        <mxCell id="AQfkEVB8-soOwDxCn6y5-326" value="" style="edgeStyle=orthogonalEdgeStyle;rounded=0;orthogonalLoop=1;jettySize=auto;html=1;" edge="1" parent="1" source="AQfkEVB8-soOwDxCn6y5-323" target="AQfkEVB8-soOwDxCn6y5-325">
          <mxGeometry relative="1" as="geometry" />
        </mxCell>
        <mxCell id="AQfkEVB8-soOwDxCn6y5-328" value="" style="edgeStyle=orthogonalEdgeStyle;rounded=0;orthogonalLoop=1;jettySize=auto;html=1;" edge="1" parent="1" source="AQfkEVB8-soOwDxCn6y5-323" target="AQfkEVB8-soOwDxCn6y5-327">
          <mxGeometry relative="1" as="geometry" />
        </mxCell>
        <mxCell id="AQfkEVB8-soOwDxCn6y5-323" value="&amp;lt;eq&amp;gt;" style="ellipse;whiteSpace=wrap;html=1;" vertex="1" parent="1">
          <mxGeometry x="1470" y="2720" width="80" height="80" as="geometry" />
        </mxCell>
        <mxCell id="AQfkEVB8-soOwDxCn6y5-339" value="" style="edgeStyle=orthogonalEdgeStyle;rounded=0;orthogonalLoop=1;jettySize=auto;html=1;" edge="1" parent="1" source="AQfkEVB8-soOwDxCn6y5-325" target="AQfkEVB8-soOwDxCn6y5-338">
          <mxGeometry relative="1" as="geometry" />
        </mxCell>
        <mxCell id="AQfkEVB8-soOwDxCn6y5-349" style="edgeStyle=orthogonalEdgeStyle;rounded=0;orthogonalLoop=1;jettySize=auto;html=1;exitX=0.5;exitY=0;exitDx=0;exitDy=0;entryX=1;entryY=1;entryDx=0;entryDy=0;fillColor=#b0e3e6;strokeColor=#0e8088;" edge="1" parent="1" source="AQfkEVB8-soOwDxCn6y5-325" target="AQfkEVB8-soOwDxCn6y5-31">
          <mxGeometry relative="1" as="geometry">
            <Array as="points">
              <mxPoint x="1670" y="2590" />
              <mxPoint x="1228" y="2590" />
            </Array>
          </mxGeometry>
        </mxCell>
        <mxCell id="AQfkEVB8-soOwDxCn6y5-350" style="edgeStyle=orthogonalEdgeStyle;rounded=0;orthogonalLoop=1;jettySize=auto;html=1;exitX=0.5;exitY=0;exitDx=0;exitDy=0;entryX=0;entryY=0;entryDx=0;entryDy=0;fillColor=#b0e3e6;strokeColor=#0e8088;" edge="1" parent="1" source="AQfkEVB8-soOwDxCn6y5-325" target="AQfkEVB8-soOwDxCn6y5-27">
          <mxGeometry relative="1" as="geometry">
            <Array as="points">
              <mxPoint x="1670" y="2590" />
              <mxPoint x="910" y="2590" />
              <mxPoint x="910" y="2032" />
            </Array>
          </mxGeometry>
        </mxCell>
        <mxCell id="AQfkEVB8-soOwDxCn6y5-325" value="&amp;lt;var_exp&amp;gt;" style="ellipse;whiteSpace=wrap;html=1;" vertex="1" parent="1">
          <mxGeometry x="1630" y="2720" width="80" height="80" as="geometry" />
        </mxCell>
        <mxCell id="AQfkEVB8-soOwDxCn6y5-327" value="ASSIGN" style="ellipse;whiteSpace=wrap;html=1;fillColor=#b0e3e6;strokeColor=#0e8088;" vertex="1" parent="1">
          <mxGeometry x="1470" y="2600" width="80" height="80" as="geometry" />
        </mxCell>
        <mxCell id="AQfkEVB8-soOwDxCn6y5-329" value="UNDERLINE" style="ellipse;whiteSpace=wrap;html=1;fillColor=#b0e3e6;strokeColor=#0e8088;" vertex="1" parent="1">
          <mxGeometry x="1310" y="2860" width="80" height="80" as="geometry" />
        </mxCell>
        <mxCell id="AQfkEVB8-soOwDxCn6y5-335" value="" style="edgeStyle=orthogonalEdgeStyle;rounded=0;orthogonalLoop=1;jettySize=auto;html=1;" edge="1" parent="1" source="AQfkEVB8-soOwDxCn6y5-332" target="AQfkEVB8-soOwDxCn6y5-334">
          <mxGeometry relative="1" as="geometry" />
        </mxCell>
        <mxCell id="AQfkEVB8-soOwDxCn6y5-332" value="&amp;lt;id&amp;gt;" style="ellipse;whiteSpace=wrap;html=1;" vertex="1" parent="1">
          <mxGeometry x="1440" y="2860" width="80" height="80" as="geometry" />
        </mxCell>
        <mxCell id="AQfkEVB8-soOwDxCn6y5-334" value="ID" style="ellipse;whiteSpace=wrap;html=1;fillColor=#b0e3e6;strokeColor=#0e8088;" vertex="1" parent="1">
          <mxGeometry x="1600" y="2860" width="80" height="80" as="geometry" />
        </mxCell>
        <mxCell id="AQfkEVB8-soOwDxCn6y5-336" value="" style="rounded=1;whiteSpace=wrap;html=1;dashed=1;dashPattern=8 8;fillColor=none;strokeColor=#0022FF;" vertex="1" parent="1">
          <mxGeometry x="1430" y="2850" width="100" height="100" as="geometry" />
        </mxCell>
        <mxCell id="AQfkEVB8-soOwDxCn6y5-341" value="" style="edgeStyle=orthogonalEdgeStyle;rounded=0;orthogonalLoop=1;jettySize=auto;html=1;" edge="1" parent="1" source="AQfkEVB8-soOwDxCn6y5-338" target="AQfkEVB8-soOwDxCn6y5-340">
          <mxGeometry relative="1" as="geometry" />
        </mxCell>
        <mxCell id="AQfkEVB8-soOwDxCn6y5-347" value="" style="edgeStyle=orthogonalEdgeStyle;rounded=0;orthogonalLoop=1;jettySize=auto;html=1;" edge="1" parent="1" source="AQfkEVB8-soOwDxCn6y5-338" target="AQfkEVB8-soOwDxCn6y5-346">
          <mxGeometry relative="1" as="geometry" />
        </mxCell>
        <mxCell id="AQfkEVB8-soOwDxCn6y5-338" value="&amp;lt;exp&amp;gt;" style="ellipse;whiteSpace=wrap;html=1;" vertex="1" parent="1">
          <mxGeometry x="1750" y="2720" width="80" height="80" as="geometry" />
        </mxCell>
        <mxCell id="AQfkEVB8-soOwDxCn6y5-343" value="" style="edgeStyle=orthogonalEdgeStyle;rounded=0;orthogonalLoop=1;jettySize=auto;html=1;" edge="1" parent="1" source="AQfkEVB8-soOwDxCn6y5-340" target="AQfkEVB8-soOwDxCn6y5-342">
          <mxGeometry relative="1" as="geometry" />
        </mxCell>
        <mxCell id="AQfkEVB8-soOwDxCn6y5-340" value="&amp;lt;semicolon&amp;gt;" style="ellipse;whiteSpace=wrap;html=1;" vertex="1" parent="1">
          <mxGeometry x="1750" y="2860" width="80" height="80" as="geometry" />
        </mxCell>
        <mxCell id="AQfkEVB8-soOwDxCn6y5-342" value="SEMICOLON" style="ellipse;whiteSpace=wrap;html=1;fillColor=#b0e3e6;strokeColor=#0e8088;" vertex="1" parent="1">
          <mxGeometry x="1750" y="3000" width="80" height="80" as="geometry" />
        </mxCell>
        <mxCell id="AQfkEVB8-soOwDxCn6y5-346" value="&lt;p style=&quot;line-height: 14px; margin-bottom: 0cm; font-size: 14px;&quot;&gt;//call precedence analyzer&lt;/p&gt;&lt;div&gt;&lt;br style=&quot;font-size: 14px;&quot;&gt;&lt;/div&gt;" style="whiteSpace=wrap;html=1;fillColor=#b0e3e6;strokeColor=#0e8088;" vertex="1" parent="1">
          <mxGeometry x="1870" y="2730" width="120" height="60" as="geometry" />
        </mxCell>
        <mxCell id="AQfkEVB8-soOwDxCn6y5-348" value="" style="rounded=1;whiteSpace=wrap;html=1;dashed=1;dashPattern=8 8;fillColor=none;strokeColor=#0022FF;" vertex="1" parent="1">
          <mxGeometry x="1740" y="2710" width="100" height="240" as="geometry" />
        </mxCell>
        <mxCell id="AQfkEVB8-soOwDxCn6y5-355" value="" style="edgeStyle=orthogonalEdgeStyle;rounded=0;orthogonalLoop=1;jettySize=auto;html=1;" edge="1" parent="1" source="AQfkEVB8-soOwDxCn6y5-352" target="AQfkEVB8-soOwDxCn6y5-354">
          <mxGeometry relative="1" as="geometry" />
        </mxCell>
        <mxCell id="AQfkEVB8-soOwDxCn6y5-367" value="" style="edgeStyle=orthogonalEdgeStyle;rounded=0;orthogonalLoop=1;jettySize=auto;html=1;" edge="1" parent="1" source="AQfkEVB8-soOwDxCn6y5-352" target="AQfkEVB8-soOwDxCn6y5-366">
          <mxGeometry relative="1" as="geometry">
            <Array as="points">
              <mxPoint x="1330" y="3310" />
              <mxPoint x="1201" y="3310" />
            </Array>
          </mxGeometry>
        </mxCell>
        <mxCell id="AQfkEVB8-soOwDxCn6y5-369" value="" style="edgeStyle=orthogonalEdgeStyle;rounded=0;orthogonalLoop=1;jettySize=auto;html=1;" edge="1" parent="1" source="AQfkEVB8-soOwDxCn6y5-352" target="AQfkEVB8-soOwDxCn6y5-368">
          <mxGeometry relative="1" as="geometry">
            <Array as="points">
              <mxPoint x="1330" y="3310" />
              <mxPoint x="1310" y="3310" />
            </Array>
          </mxGeometry>
        </mxCell>
        <mxCell id="AQfkEVB8-soOwDxCn6y5-352" value="&lt;span style=&quot;font-size: 10px;&quot;&gt;&amp;lt;var_const&amp;gt;&lt;/span&gt;" style="ellipse;whiteSpace=wrap;html=1;" vertex="1" parent="1">
          <mxGeometry x="1290" y="3170" width="80" height="80" as="geometry" />
        </mxCell>
        <mxCell id="AQfkEVB8-soOwDxCn6y5-357" value="" style="edgeStyle=orthogonalEdgeStyle;rounded=0;orthogonalLoop=1;jettySize=auto;html=1;" edge="1" parent="1" source="AQfkEVB8-soOwDxCn6y5-354" target="AQfkEVB8-soOwDxCn6y5-356">
          <mxGeometry relative="1" as="geometry" />
        </mxCell>
        <mxCell id="AQfkEVB8-soOwDxCn6y5-363" value="" style="edgeStyle=orthogonalEdgeStyle;rounded=0;orthogonalLoop=1;jettySize=auto;html=1;" edge="1" parent="1" source="AQfkEVB8-soOwDxCn6y5-354" target="AQfkEVB8-soOwDxCn6y5-362">
          <mxGeometry relative="1" as="geometry" />
        </mxCell>
        <mxCell id="AQfkEVB8-soOwDxCn6y5-354" value="&amp;lt;id&amp;gt;" style="ellipse;whiteSpace=wrap;html=1;" vertex="1" parent="1">
          <mxGeometry x="1410" y="3170" width="80" height="80" as="geometry" />
        </mxCell>
        <mxCell id="AQfkEVB8-soOwDxCn6y5-359" value="" style="edgeStyle=orthogonalEdgeStyle;rounded=0;orthogonalLoop=1;jettySize=auto;html=1;" edge="1" parent="1" source="AQfkEVB8-soOwDxCn6y5-356" target="AQfkEVB8-soOwDxCn6y5-358">
          <mxGeometry relative="1" as="geometry" />
        </mxCell>
        <mxCell id="AQfkEVB8-soOwDxCn6y5-375" value="" style="edgeStyle=orthogonalEdgeStyle;rounded=0;orthogonalLoop=1;jettySize=auto;html=1;" edge="1" parent="1" source="AQfkEVB8-soOwDxCn6y5-356" target="AQfkEVB8-soOwDxCn6y5-374">
          <mxGeometry relative="1" as="geometry">
            <Array as="points">
              <mxPoint x="1570" y="3300" />
              <mxPoint x="1694" y="3300" />
            </Array>
          </mxGeometry>
        </mxCell>
        <mxCell id="AQfkEVB8-soOwDxCn6y5-377" style="edgeStyle=orthogonalEdgeStyle;rounded=0;orthogonalLoop=1;jettySize=auto;html=1;exitX=0.5;exitY=1;exitDx=0;exitDy=0;" edge="1" parent="1" source="AQfkEVB8-soOwDxCn6y5-356" target="AQfkEVB8-soOwDxCn6y5-376">
          <mxGeometry relative="1" as="geometry" />
        </mxCell>
        <mxCell id="AQfkEVB8-soOwDxCn6y5-356" value="&amp;lt;type_vardef&amp;gt;" style="ellipse;whiteSpace=wrap;html=1;" vertex="1" parent="1">
          <mxGeometry x="1530" y="3170" width="80" height="80" as="geometry" />
        </mxCell>
        <mxCell id="AQfkEVB8-soOwDxCn6y5-361" value="" style="edgeStyle=orthogonalEdgeStyle;rounded=0;orthogonalLoop=1;jettySize=auto;html=1;" edge="1" parent="1" source="AQfkEVB8-soOwDxCn6y5-358" target="AQfkEVB8-soOwDxCn6y5-360">
          <mxGeometry relative="1" as="geometry" />
        </mxCell>
        <mxCell id="AQfkEVB8-soOwDxCn6y5-365" value="" style="edgeStyle=orthogonalEdgeStyle;rounded=0;orthogonalLoop=1;jettySize=auto;html=1;" edge="1" parent="1" source="AQfkEVB8-soOwDxCn6y5-358" target="AQfkEVB8-soOwDxCn6y5-364">
          <mxGeometry relative="1" as="geometry" />
        </mxCell>
        <mxCell id="AQfkEVB8-soOwDxCn6y5-358" value="&amp;lt;eq&amp;gt;" style="ellipse;whiteSpace=wrap;html=1;" vertex="1" parent="1">
          <mxGeometry x="1654" y="3170" width="80" height="80" as="geometry" />
        </mxCell>
        <mxCell id="AQfkEVB8-soOwDxCn6y5-432" style="edgeStyle=orthogonalEdgeStyle;rounded=0;orthogonalLoop=1;jettySize=auto;html=1;exitX=0.5;exitY=0;exitDx=0;exitDy=0;entryX=1;entryY=1;entryDx=0;entryDy=0;fillColor=#b0e3e6;strokeColor=#0e8088;" edge="1" parent="1" source="AQfkEVB8-soOwDxCn6y5-360" target="AQfkEVB8-soOwDxCn6y5-325">
          <mxGeometry relative="1" as="geometry">
            <Array as="points">
              <mxPoint x="1810" y="3120" />
              <mxPoint x="1698" y="3120" />
            </Array>
          </mxGeometry>
        </mxCell>
        <mxCell id="AQfkEVB8-soOwDxCn6y5-360" value="&amp;lt;var_exp&amp;gt;" style="ellipse;whiteSpace=wrap;html=1;" vertex="1" parent="1">
          <mxGeometry x="1770" y="3170" width="80" height="80" as="geometry" />
        </mxCell>
        <mxCell id="AQfkEVB8-soOwDxCn6y5-362" value="ID" style="ellipse;whiteSpace=wrap;html=1;fillColor=#b0e3e6;strokeColor=#0e8088;" vertex="1" parent="1">
          <mxGeometry x="1410" y="3010" width="80" height="80" as="geometry" />
        </mxCell>
        <mxCell id="AQfkEVB8-soOwDxCn6y5-364" value="ASSIGN" style="ellipse;whiteSpace=wrap;html=1;fillColor=#b0e3e6;strokeColor=#0e8088;" vertex="1" parent="1">
          <mxGeometry x="1580" y="3030" width="80" height="80" as="geometry" />
        </mxCell>
        <mxCell id="AQfkEVB8-soOwDxCn6y5-366" value="VAR" style="ellipse;whiteSpace=wrap;html=1;fillColor=#b0e3e6;strokeColor=#0e8088;" vertex="1" parent="1">
          <mxGeometry x="1161" y="3380" width="80" height="80" as="geometry" />
        </mxCell>
        <mxCell id="AQfkEVB8-soOwDxCn6y5-372" style="edgeStyle=orthogonalEdgeStyle;rounded=0;orthogonalLoop=1;jettySize=auto;html=1;entryX=0;entryY=0.5;entryDx=0;entryDy=0;" edge="1" parent="1" source="AQfkEVB8-soOwDxCn6y5-368" target="AQfkEVB8-soOwDxCn6y5-370">
          <mxGeometry relative="1" as="geometry" />
        </mxCell>
        <mxCell id="AQfkEVB8-soOwDxCn6y5-368" value="&amp;lt;const&amp;gt;" style="ellipse;whiteSpace=wrap;html=1;" vertex="1" parent="1">
          <mxGeometry x="1270" y="3380" width="80" height="80" as="geometry" />
        </mxCell>
        <mxCell id="AQfkEVB8-soOwDxCn6y5-370" value="CONST" style="ellipse;whiteSpace=wrap;html=1;fillColor=#b0e3e6;strokeColor=#0e8088;" vertex="1" parent="1">
          <mxGeometry x="1390" y="3380" width="80" height="80" as="geometry" />
        </mxCell>
        <mxCell id="AQfkEVB8-soOwDxCn6y5-373" value="" style="rounded=1;whiteSpace=wrap;html=1;dashed=1;dashPattern=8 8;fillColor=none;strokeColor=#0022FF;" vertex="1" parent="1">
          <mxGeometry x="1260" y="3370" width="100" height="100" as="geometry" />
        </mxCell>
        <mxCell id="AQfkEVB8-soOwDxCn6y5-379" value="" style="edgeStyle=orthogonalEdgeStyle;rounded=0;orthogonalLoop=1;jettySize=auto;html=1;" edge="1" parent="1" source="AQfkEVB8-soOwDxCn6y5-374" target="AQfkEVB8-soOwDxCn6y5-378">
          <mxGeometry relative="1" as="geometry" />
        </mxCell>
        <mxCell id="AQfkEVB8-soOwDxCn6y5-381" value="" style="edgeStyle=orthogonalEdgeStyle;rounded=0;orthogonalLoop=1;jettySize=auto;html=1;" edge="1" parent="1" source="AQfkEVB8-soOwDxCn6y5-374" target="AQfkEVB8-soOwDxCn6y5-380">
          <mxGeometry relative="1" as="geometry" />
        </mxCell>
        <mxCell id="AQfkEVB8-soOwDxCn6y5-374" value="&amp;lt;colon&amp;gt;" style="ellipse;whiteSpace=wrap;html=1;" vertex="1" parent="1">
          <mxGeometry x="1654" y="3380" width="80" height="80" as="geometry" />
        </mxCell>
        <mxCell id="AQfkEVB8-soOwDxCn6y5-376" value="&lt;font style=&quot;font-size: 30px;&quot;&gt;ε&lt;/font&gt;" style="ellipse;whiteSpace=wrap;html=1;fillColor=#ffe6cc;strokeColor=#d79b00;" vertex="1" parent="1">
          <mxGeometry x="1530" y="3380" width="80" height="80" as="geometry" />
        </mxCell>
        <mxCell id="AQfkEVB8-soOwDxCn6y5-378" value="COLON" style="ellipse;whiteSpace=wrap;html=1;fillColor=#b0e3e6;strokeColor=#0e8088;" vertex="1" parent="1">
          <mxGeometry x="1814" y="3380" width="80" height="80" as="geometry" />
        </mxCell>
        <mxCell id="AQfkEVB8-soOwDxCn6y5-418" style="edgeStyle=orthogonalEdgeStyle;rounded=0;orthogonalLoop=1;jettySize=auto;html=1;exitX=1;exitY=0.5;exitDx=0;exitDy=0;entryX=0;entryY=0.5;entryDx=0;entryDy=0;" edge="1" parent="1" source="AQfkEVB8-soOwDxCn6y5-380" target="AQfkEVB8-soOwDxCn6y5-396">
          <mxGeometry relative="1" as="geometry" />
        </mxCell>
        <mxCell id="AQfkEVB8-soOwDxCn6y5-420" style="edgeStyle=orthogonalEdgeStyle;rounded=0;orthogonalLoop=1;jettySize=auto;html=1;exitX=1;exitY=0.5;exitDx=0;exitDy=0;entryX=0;entryY=0.5;entryDx=0;entryDy=0;" edge="1" parent="1" source="AQfkEVB8-soOwDxCn6y5-380" target="AQfkEVB8-soOwDxCn6y5-398">
          <mxGeometry relative="1" as="geometry" />
        </mxCell>
        <mxCell id="AQfkEVB8-soOwDxCn6y5-380" value="&amp;lt;type&amp;gt;" style="ellipse;whiteSpace=wrap;html=1;" vertex="1" parent="1">
          <mxGeometry x="1654" y="3540" width="80" height="80" as="geometry" />
        </mxCell>
        <mxCell id="AQfkEVB8-soOwDxCn6y5-394" style="edgeStyle=orthogonalEdgeStyle;rounded=0;orthogonalLoop=1;jettySize=auto;html=1;exitX=0.5;exitY=0;exitDx=0;exitDy=0;entryX=0.5;entryY=1;entryDx=0;entryDy=0;" edge="1" parent="1" source="AQfkEVB8-soOwDxCn6y5-396" target="AQfkEVB8-soOwDxCn6y5-402">
          <mxGeometry relative="1" as="geometry">
            <mxPoint x="2530.1034482758623" y="3630" as="targetPoint" />
          </mxGeometry>
        </mxCell>
        <mxCell id="AQfkEVB8-soOwDxCn6y5-395" style="edgeStyle=orthogonalEdgeStyle;rounded=0;orthogonalLoop=1;jettySize=auto;html=1;exitX=0.5;exitY=0;exitDx=0;exitDy=0;entryX=0.5;entryY=1;entryDx=0;entryDy=0;" edge="1" parent="1" source="AQfkEVB8-soOwDxCn6y5-396" target="AQfkEVB8-soOwDxCn6y5-403">
          <mxGeometry relative="1" as="geometry">
            <mxPoint x="2410" y="3610" as="targetPoint" />
          </mxGeometry>
        </mxCell>
        <mxCell id="AQfkEVB8-soOwDxCn6y5-419" value="" style="edgeStyle=orthogonalEdgeStyle;rounded=0;orthogonalLoop=1;jettySize=auto;html=1;" edge="1" parent="1" source="AQfkEVB8-soOwDxCn6y5-396" target="AQfkEVB8-soOwDxCn6y5-401">
          <mxGeometry relative="1" as="geometry" />
        </mxCell>
        <mxCell id="AQfkEVB8-soOwDxCn6y5-396" value="&amp;lt;nullable&amp;gt;" style="ellipse;whiteSpace=wrap;html=1;" vertex="1" parent="1">
          <mxGeometry x="1970" y="3600" width="80" height="80" as="geometry" />
        </mxCell>
        <mxCell id="AQfkEVB8-soOwDxCn6y5-422" style="edgeStyle=orthogonalEdgeStyle;rounded=0;orthogonalLoop=1;jettySize=auto;html=1;exitX=1;exitY=0.5;exitDx=0;exitDy=0;entryX=0;entryY=0.5;entryDx=0;entryDy=0;" edge="1" parent="1" source="AQfkEVB8-soOwDxCn6y5-398" target="AQfkEVB8-soOwDxCn6y5-404">
          <mxGeometry relative="1" as="geometry" />
        </mxCell>
        <mxCell id="AQfkEVB8-soOwDxCn6y5-426" style="edgeStyle=orthogonalEdgeStyle;rounded=0;orthogonalLoop=1;jettySize=auto;html=1;exitX=1;exitY=0.5;exitDx=0;exitDy=0;entryX=0;entryY=0.5;entryDx=0;entryDy=0;" edge="1" parent="1" source="AQfkEVB8-soOwDxCn6y5-398" target="AQfkEVB8-soOwDxCn6y5-408">
          <mxGeometry relative="1" as="geometry" />
        </mxCell>
        <mxCell id="AQfkEVB8-soOwDxCn6y5-398" value="&lt;font style=&quot;font-size: 10px;&quot;&gt;&amp;lt;type_keyword&amp;gt;&lt;/font&gt;" style="ellipse;whiteSpace=wrap;html=1;" vertex="1" parent="1">
          <mxGeometry x="1970" y="3712" width="80" height="80" as="geometry" />
        </mxCell>
        <mxCell id="AQfkEVB8-soOwDxCn6y5-421" style="edgeStyle=orthogonalEdgeStyle;rounded=0;orthogonalLoop=1;jettySize=auto;html=1;exitX=1;exitY=0.5;exitDx=0;exitDy=0;entryX=0;entryY=0.5;entryDx=0;entryDy=0;" edge="1" parent="1" source="AQfkEVB8-soOwDxCn6y5-401" target="AQfkEVB8-soOwDxCn6y5-405">
          <mxGeometry relative="1" as="geometry" />
        </mxCell>
        <mxCell id="AQfkEVB8-soOwDxCn6y5-423" style="edgeStyle=orthogonalEdgeStyle;rounded=0;orthogonalLoop=1;jettySize=auto;html=1;exitX=1;exitY=0.5;exitDx=0;exitDy=0;" edge="1" parent="1" source="AQfkEVB8-soOwDxCn6y5-401">
          <mxGeometry relative="1" as="geometry">
            <mxPoint x="2430" y="3800" as="targetPoint" />
            <Array as="points">
              <mxPoint x="2320" y="3640" />
              <mxPoint x="2320" y="3800" />
            </Array>
          </mxGeometry>
        </mxCell>
        <mxCell id="AQfkEVB8-soOwDxCn6y5-427" style="edgeStyle=orthogonalEdgeStyle;rounded=0;orthogonalLoop=1;jettySize=auto;html=1;exitX=1;exitY=0.5;exitDx=0;exitDy=0;entryX=0;entryY=0.5;entryDx=0;entryDy=0;" edge="1" parent="1" source="AQfkEVB8-soOwDxCn6y5-401" target="AQfkEVB8-soOwDxCn6y5-408">
          <mxGeometry relative="1" as="geometry" />
        </mxCell>
        <mxCell id="AQfkEVB8-soOwDxCn6y5-401" value="&lt;font style=&quot;font-size: 10px;&quot;&gt;&amp;lt;type_keyword&amp;gt;&lt;/font&gt;" style="ellipse;whiteSpace=wrap;html=1;" vertex="1" parent="1">
          <mxGeometry x="2130" y="3600" width="80" height="80" as="geometry" />
        </mxCell>
        <mxCell id="AQfkEVB8-soOwDxCn6y5-402" value="NULLABLE" style="ellipse;whiteSpace=wrap;html=1;fillColor=#b0e3e6;strokeColor=#0e8088;" vertex="1" parent="1">
          <mxGeometry x="2010" y="3400" width="80" height="80" as="geometry" />
        </mxCell>
        <mxCell id="AQfkEVB8-soOwDxCn6y5-403" value="&lt;font style=&quot;font-size: 30px;&quot;&gt;ε&lt;/font&gt;" style="ellipse;whiteSpace=wrap;html=1;fillColor=#ffe6cc;strokeColor=#d79b00;" vertex="1" parent="1">
          <mxGeometry x="1920" y="3400" width="80" height="80" as="geometry" />
        </mxCell>
        <mxCell id="AQfkEVB8-soOwDxCn6y5-404" value="F64" style="ellipse;whiteSpace=wrap;html=1;aspect=fixed;fillColor=#b0e3e6;strokeColor=#0e8088;" vertex="1" parent="1">
          <mxGeometry x="2430" y="3760" width="80" height="80" as="geometry" />
        </mxCell>
        <mxCell id="AQfkEVB8-soOwDxCn6y5-405" value="I32" style="ellipse;whiteSpace=wrap;html=1;fillColor=#b0e3e6;strokeColor=#0e8088;" vertex="1" parent="1">
          <mxGeometry x="2430" y="3640" width="80" height="80" as="geometry" />
        </mxCell>
        <mxCell id="AQfkEVB8-soOwDxCn6y5-407" style="edgeStyle=orthogonalEdgeStyle;rounded=0;orthogonalLoop=1;jettySize=auto;html=1;exitX=0.5;exitY=1;exitDx=0;exitDy=0;entryX=0.5;entryY=0;entryDx=0;entryDy=0;" edge="1" parent="1" source="AQfkEVB8-soOwDxCn6y5-408" target="AQfkEVB8-soOwDxCn6y5-414">
          <mxGeometry relative="1" as="geometry">
            <mxPoint x="2159.7586206896553" y="4110" as="targetPoint" />
          </mxGeometry>
        </mxCell>
        <mxCell id="AQfkEVB8-soOwDxCn6y5-425" value="" style="edgeStyle=orthogonalEdgeStyle;rounded=0;orthogonalLoop=1;jettySize=auto;html=1;" edge="1" parent="1" source="AQfkEVB8-soOwDxCn6y5-408" target="AQfkEVB8-soOwDxCn6y5-411">
          <mxGeometry relative="1" as="geometry" />
        </mxCell>
        <mxCell id="AQfkEVB8-soOwDxCn6y5-408" value="&amp;lt;op_sq_bracket&amp;gt;" style="ellipse;whiteSpace=wrap;html=1;fontSize=10;" vertex="1" parent="1">
          <mxGeometry x="2430" y="3910" width="80" height="80" as="geometry" />
        </mxCell>
        <mxCell id="AQfkEVB8-soOwDxCn6y5-410" style="edgeStyle=orthogonalEdgeStyle;rounded=0;orthogonalLoop=1;jettySize=auto;html=1;exitX=0.5;exitY=1;exitDx=0;exitDy=0;entryX=0.5;entryY=0;entryDx=0;entryDy=0;entryPerimeter=0;" edge="1" parent="1" source="AQfkEVB8-soOwDxCn6y5-411" target="AQfkEVB8-soOwDxCn6y5-415">
          <mxGeometry relative="1" as="geometry">
            <mxPoint x="1999.7586206896553" y="4120" as="targetPoint" />
          </mxGeometry>
        </mxCell>
        <mxCell id="AQfkEVB8-soOwDxCn6y5-424" value="" style="edgeStyle=orthogonalEdgeStyle;rounded=0;orthogonalLoop=1;jettySize=auto;html=1;" edge="1" parent="1" source="AQfkEVB8-soOwDxCn6y5-411" target="AQfkEVB8-soOwDxCn6y5-412">
          <mxGeometry relative="1" as="geometry" />
        </mxCell>
        <mxCell id="AQfkEVB8-soOwDxCn6y5-411" value="&lt;font size=&quot;1&quot;&gt;&amp;lt;cl_sq_bracket&amp;gt;&lt;/font&gt;" style="ellipse;whiteSpace=wrap;html=1;" vertex="1" parent="1">
          <mxGeometry x="2570" y="3910" width="80" height="80" as="geometry" />
        </mxCell>
        <mxCell id="AQfkEVB8-soOwDxCn6y5-412" value="U8" style="ellipse;whiteSpace=wrap;html=1;fillColor=#b0e3e6;strokeColor=#0e8088;" vertex="1" parent="1">
          <mxGeometry x="2700" y="3910" width="80" height="80" as="geometry" />
        </mxCell>
        <mxCell id="AQfkEVB8-soOwDxCn6y5-414" value="OPENING&lt;div&gt;_SQUARE&lt;/div&gt;&lt;div&gt;_BRACKET&lt;/div&gt;" style="ellipse;whiteSpace=wrap;html=1;fillColor=#b0e3e6;strokeColor=#0e8088;" vertex="1" parent="1">
          <mxGeometry x="2430" y="4040" width="80" height="80" as="geometry" />
        </mxCell>
        <mxCell id="AQfkEVB8-soOwDxCn6y5-415" value="CLOSING&lt;div&gt;_SQUARE&lt;/div&gt;&lt;div&gt;_BRACKET&lt;/div&gt;" style="ellipse;whiteSpace=wrap;html=1;fillColor=#b0e3e6;strokeColor=#0e8088;" vertex="1" parent="1">
          <mxGeometry x="2570" y="4040" width="80" height="80" as="geometry" />
        </mxCell>
        <mxCell id="AQfkEVB8-soOwDxCn6y5-428" value="" style="rounded=1;whiteSpace=wrap;html=1;dashed=1;dashPattern=8 8;fillColor=none;strokeColor=#0022FF;" vertex="1" parent="1">
          <mxGeometry x="1960" y="3590" width="260" height="100" as="geometry" />
        </mxCell>
        <mxCell id="AQfkEVB8-soOwDxCn6y5-430" value="" style="rounded=1;whiteSpace=wrap;html=1;dashed=1;dashPattern=8 8;fillColor=none;strokeColor=#0022FF;" vertex="1" parent="1">
          <mxGeometry x="1960" y="3702" width="100" height="100" as="geometry" />
        </mxCell>
        <mxCell id="AQfkEVB8-soOwDxCn6y5-431" value="" style="rounded=1;whiteSpace=wrap;html=1;dashed=1;dashPattern=8 8;fillColor=none;strokeColor=#0022FF;" vertex="1" parent="1">
          <mxGeometry x="2420" y="3900" width="240" height="100" as="geometry" />
        </mxCell>
        <mxCell id="AQfkEVB8-soOwDxCn6y5-433" value="" style="rounded=1;whiteSpace=wrap;html=1;dashed=1;dashPattern=8 8;fillColor=none;strokeColor=#0022FF;" vertex="1" parent="1">
          <mxGeometry x="1280" y="3160" width="580" height="100" as="geometry" />
        </mxCell>
      </root>
    </mxGraphModel>
  </diagram>
</mxfile>
